<svg width="190" height="190" viewBox="0 0 190 190" fill="none" xmlns="http://www.w3.org/2000/svg">
<path d="M33.6112 168.04C67.8872 188.271 123.466 188.271 157.746 168.04C192.026 147.808 192.026 115.007 157.746 94.7794C123.466 74.552 67.8872 74.5482 33.6074 94.7794C-0.672434 115.011 -0.668636 147.82 33.6112 168.04Z" fill="#F5F5F5"/>
<path d="M148.633 163.799C157.907 163.799 165.425 159.459 165.425 154.105C165.425 148.751 157.907 144.411 148.633 144.411C139.359 144.411 131.841 148.751 131.841 154.105C131.841 159.459 139.359 163.799 148.633 163.799Z" fill="#E0E0E0"/>
<path d="M138.099 29.3131L141.014 30.9965C140.998 30.8704 140.989 30.7436 140.987 30.6165V29.7653C140.987 28.2453 142.044 27.6525 143.343 28.4049C143.903 28.7488 144.382 29.2088 144.749 29.7539C144.962 27.8539 146.444 27.1623 148.245 28.1997C150.191 29.3397 151.768 32.0567 151.768 34.3063V35.5679C151.781 36.0717 151.679 36.5718 151.471 37.0309L153.888 38.4293C154.271 38.6789 154.589 39.0156 154.816 39.412C155.043 39.8083 155.173 40.253 155.195 40.7093C155.195 41.5415 154.61 41.8797 153.888 41.4693L138.099 32.3493C137.716 32.0998 137.398 31.763 137.171 31.3666C136.944 30.9703 136.814 30.5257 136.792 30.0693C136.8 29.2333 137.377 28.8799 138.099 29.3131Z" fill="#EBEBEB"/>
<path d="M125.628 37.8019L127.828 39.0711C127.816 38.9753 127.81 38.8789 127.809 38.7823V38.1439C127.809 37.0039 128.607 36.5517 129.587 37.1179C130.01 37.3765 130.372 37.724 130.647 38.1363C130.807 36.7113 131.924 36.1793 133.285 36.9621C134.059 37.4673 134.704 38.148 135.166 38.9488C135.628 39.7497 135.895 40.6482 135.945 41.5715V42.5253C135.955 42.905 135.878 43.2819 135.72 43.6273L137.544 44.6837C137.832 44.8704 138.071 45.1221 138.243 45.4186C138.414 45.7151 138.514 46.0479 138.532 46.3899C138.532 47.0207 138.092 47.2753 137.544 46.9599L125.628 40.0781C125.341 39.8923 125.103 39.6417 124.931 39.3466C124.76 39.0516 124.66 38.7203 124.64 38.3795C124.64 37.7411 125.084 37.4865 125.628 37.8019Z" fill="#EBEBEB"/>
<path d="M28.0745 109.675C27.8579 109.793 23.8945 110.922 22.4125 108.976C20.9305 107.03 23.3815 104.002 22.0021 102.896C20.6227 101.79 16.7543 102.896 15.8233 100.551C14.8923 98.2068 17.6511 97.1884 16.1007 94.821C15.1241 93.3314 12.7225 92.4954 12.5097 91.116C12.1601 88.8132 15.9753 87.753 19.2433 89.9304C22.5113 92.1078 24.4835 91.1084 25.5209 90.9602C26.5583 90.812 28.7889 91.1388 28.7167 94.7602C28.6445 98.3816 28.0745 109.675 28.0745 109.675Z" fill="#CFD8DC"/>
<path d="M28.3371 104.499C28.2855 104.5 28.2355 104.482 28.1964 104.448C28.1573 104.414 28.1316 104.368 28.1243 104.317C26.9843 97.416 18.9625 91.7958 14.7901 90.5912C14.7346 90.5756 14.6877 90.5386 14.6595 90.4883C14.6314 90.4381 14.6244 90.3787 14.64 90.3233C14.6556 90.2679 14.6926 90.2209 14.7428 90.1927C14.7931 90.1646 14.8524 90.1576 14.9079 90.1732C19.1753 91.4082 27.3833 97.1652 28.5499 104.233C28.5587 104.29 28.5448 104.347 28.5114 104.393C28.4779 104.44 28.4276 104.471 28.3713 104.48L28.3371 104.499Z" fill="white"/>
<path d="M18.8745 98.7236C18.8267 98.7253 18.7797 98.7108 18.7412 98.6825C18.7026 98.6542 18.6747 98.6137 18.662 98.5676C18.6492 98.5215 18.6524 98.4724 18.671 98.4283C18.6895 98.3842 18.7224 98.3477 18.7643 98.3246C18.8935 98.2448 21.9791 96.4246 25.0229 97.2834C25.0781 97.3002 25.1247 97.3376 25.153 97.3878C25.1813 97.4381 25.1891 97.4973 25.1749 97.5532C25.159 97.6079 25.1221 97.6542 25.0723 97.6819C25.0226 97.7097 24.9638 97.7167 24.9089 97.7014C22.0399 96.8996 18.9999 98.678 18.9999 98.697C18.9616 98.7179 18.918 98.7271 18.8745 98.7236Z" fill="white"/>
<path d="M29.6133 112.328C29.6539 112.881 29.824 113.416 30.1098 113.891C30.3957 114.365 30.7892 114.766 31.2587 115.06L77.3641 141.66C77.874 141.919 78.4377 142.054 79.0095 142.054C79.5813 142.054 80.145 141.919 80.6549 141.66L143.735 105.237C144.232 104.975 144.648 104.582 144.939 104.1C145.229 103.619 145.382 103.067 145.382 102.505C145.382 101.943 145.229 101.391 144.939 100.91C144.648 100.428 144.232 100.035 143.735 99.7728L97.6333 73.1728C97.1234 72.9141 96.5597 72.7793 95.9879 72.7793C95.4161 72.7793 94.8524 72.9141 94.3425 73.1728L31.2625 109.596C30.7923 109.89 30.398 110.29 30.1115 110.765C29.825 111.24 29.6543 111.775 29.6133 112.328Z" fill="#37474F"/>
<path d="M79.0092 138.51V142.07C78.4373 142.086 77.8709 141.955 77.3638 141.69L31.2584 115.09C30.7764 114.836 30.3703 114.459 30.0816 113.997C29.7928 113.535 29.6318 113.005 29.6148 112.46C29.5978 111.916 29.7255 111.376 29.9848 110.897C30.2442 110.418 30.626 110.016 31.0912 109.732C30.354 110.261 30.411 111.036 31.2584 111.526L77.3638 138.126C77.8706 138.392 78.437 138.524 79.0092 138.51Z" fill="#263238"/>
<path d="M28.0701 109.653C27.6114 109.342 27.2325 108.928 26.9644 108.443C26.6963 107.958 26.5465 107.417 26.5273 106.864V51.8434C26.5585 51.2725 26.7238 50.717 27.0096 50.2218C27.2955 49.7267 27.6939 49.3058 28.1727 48.9934L91.2527 12.5742C91.7422 12.3149 92.2858 12.1743 92.8396 12.1637C93.3934 12.1532 93.9419 12.2729 94.4409 12.5134C94.9 12.8247 95.2793 13.2398 95.548 13.725C95.8167 14.2103 95.9673 14.752 95.9875 15.3064V70.3228C95.957 70.8938 95.792 71.4495 95.5061 71.9448C95.2202 72.44 94.8214 72.8607 94.3421 73.1728L31.2621 109.596C30.7722 109.856 30.2277 109.997 29.673 110.007C29.1183 110.017 28.5691 109.895 28.0701 109.653Z" fill="#455A64"/>
<path d="M31.0645 109.695C30.5928 109.907 30.0801 110.014 29.5627 110.007C29.0453 109.999 28.5358 109.879 28.0701 109.653C27.612 109.342 27.2337 108.927 26.9656 108.442C26.6976 107.958 26.5474 107.417 26.5273 106.864V51.8434C26.546 51.2712 26.7123 50.7136 27.0099 50.2246L30.0955 52.003C29.8 52.493 29.634 53.05 29.6129 53.6218V108.646C29.6129 109.619 30.2475 110.056 31.0645 109.695Z" fill="#263238"/>
<path d="M29.6133 53.6255V108.646C29.6133 109.695 30.3505 110.12 31.2587 109.596L94.3387 73.1727C94.8179 72.8607 95.2167 72.44 95.5026 71.9447C95.7885 71.4495 95.9535 70.8938 95.9841 70.3227V15.3063C95.9841 14.2575 95.2469 13.8319 94.3387 14.3563L31.2587 50.7755C30.7801 51.0882 30.3818 51.5091 30.096 52.0042C29.8101 52.4993 29.6448 53.0547 29.6133 53.6255Z" fill="#37474F"/>
<path d="M31.2588 111.496L77.3642 138.096C77.8741 138.355 78.4378 138.489 79.0096 138.489C79.5814 138.489 80.1451 138.355 80.655 138.096L143.735 101.673C144.643 101.148 144.643 100.297 143.735 99.7728L97.6334 73.1728C97.1235 72.9141 96.5598 72.7793 95.988 72.7793C95.4162 72.7793 94.8525 72.9141 94.3426 73.1728L31.2626 109.596C30.3506 110.12 30.3506 110.96 31.2588 111.496Z" fill="#455A64"/>
<path d="M32.1433 53.8305L92.9433 18.7261C93.4905 18.4107 93.9313 18.6653 93.9313 19.2961V66.9215C93.913 67.2643 93.814 67.5978 93.6423 67.895C93.4706 68.1922 93.2311 68.4445 92.9433 68.6315L32.1433 103.74C31.5961 104.055 31.1553 103.801 31.1553 103.17V55.5405C31.1735 55.1978 31.2726 54.8643 31.4443 54.5671C31.616 54.2699 31.8555 54.0175 32.1433 53.8305Z" fill="white"/>
<path opacity="0.6" d="M32.1433 53.8305L92.9433 18.7261C93.4905 18.4107 93.9313 18.6653 93.9313 19.2961V66.9215C93.913 67.2643 93.814 67.5978 93.6423 67.895C93.4706 68.1922 93.2311 68.4445 92.9433 68.6315L32.1433 103.74C31.5961 104.055 31.1553 103.801 31.1553 103.17V55.5405C31.1735 55.1978 31.2726 54.8643 31.4443 54.5671C31.616 54.2699 31.8555 54.0175 32.1433 53.8305Z" fill="#CFD8DC"/>
<path d="M62.422 50.8169C64.0408 49.8821 65.3556 50.6421 65.3556 52.5117C65.2999 53.5289 65.0052 54.5187 64.4956 55.4008C63.9859 56.2828 63.2755 57.0323 62.422 57.5885C60.8032 58.5233 59.4922 57.7671 59.4922 55.8975C59.5469 54.88 59.8407 53.8897 60.3497 53.007C60.8587 52.1243 61.5687 51.3739 62.422 50.8169Z" fill="#F0F0F0"/>
<path d="M68.2017 60.8194C68.2017 57.749 66.0433 56.3848 63.3833 57.92L61.7227 58.9004C59.0627 60.4204 56.9043 64.171 56.9043 67.2604V68.0888L68.2017 61.568V60.8194Z" fill="#F0F0F0"/>
<path d="M73.9136 62.3199C73.8072 62.0729 73.5336 62.0121 73.2258 62.1869L53.4962 73.5869C53.2843 73.7263 53.108 73.9133 52.9814 74.1331C52.8547 74.3528 52.7811 74.5991 52.7666 74.8523V77.1703C52.7666 77.5503 53.0022 77.7593 53.3214 77.6719L53.3746 77.6529C53.4162 77.6362 53.4568 77.6171 53.4962 77.5959L73.2258 66.1959C73.4385 66.0573 73.6154 65.8705 73.7422 65.6506C73.869 65.4307 73.9421 65.1839 73.9554 64.9305V62.6239C73.959 62.5209 73.9448 62.4181 73.9136 62.3199Z" fill="#F0F0F0"/>
<path d="M55.2785 73.8754C55.6585 73.6512 55.9739 73.8336 55.9739 74.2744C55.9616 74.5154 55.8922 74.75 55.7712 74.9588C55.6503 75.1676 55.4814 75.3446 55.2785 75.4752C54.8985 75.6956 54.5869 75.517 54.5869 75.0724C54.5994 74.8324 54.6685 74.5988 54.7888 74.3907C54.909 74.1826 55.0768 74.006 55.2785 73.8754Z" fill="#CFD8DC"/>
<path d="M57.5733 72.5494C57.9533 72.329 58.2649 72.5076 58.2649 72.9522C58.2525 73.1922 58.1833 73.4258 58.0631 73.6339C57.9429 73.842 57.775 74.0186 57.5733 74.1492C57.1933 74.3734 56.8779 74.191 56.8779 73.7692C56.8872 73.525 56.9553 73.2865 57.0763 73.0742C57.1974 72.8618 57.3679 72.6818 57.5733 72.5494Z" fill="#CFD8DC"/>
<path d="M59.8643 71.2272C60.2443 71.0068 60.5559 71.1854 60.5559 71.6262C60.5441 71.8669 60.4752 72.1012 60.3549 72.31C60.2347 72.5188 60.0665 72.696 59.8643 72.827C59.4843 73.0474 59.1689 72.8688 59.1689 72.428C59.1812 72.187 59.2507 71.9524 59.3716 71.7436C59.4925 71.5348 59.6614 71.3578 59.8643 71.2272Z" fill="#CFD8DC"/>
<path d="M62.1564 69.9198C62.5364 69.6956 62.8518 69.878 62.8518 70.2998C62.8396 70.5408 62.7701 70.7754 62.6492 70.9842C62.5282 71.193 62.3593 71.37 62.1564 71.5006C61.7764 71.721 61.4648 71.5424 61.4648 71.1206C61.4767 70.88 61.5456 70.6456 61.6658 70.4368C61.7861 70.228 61.9542 70.0508 62.1564 69.9198Z" fill="#CFD8DC"/>
<path d="M64.4475 68.5787C64.8275 68.3583 65.1429 68.5369 65.1429 68.9815C65.1291 69.2221 65.059 69.4562 64.9382 69.6647C64.8174 69.8733 64.6493 70.0506 64.4475 70.1823C64.0675 70.4027 63.7559 70.2241 63.7559 69.7795C63.7692 69.5392 63.8388 69.3054 63.9589 69.0969C64.079 68.8883 64.2463 68.7108 64.4475 68.5787Z" fill="#CFD8DC"/>
<path d="M66.7423 67.2599C67.1223 67.0395 67.4339 67.2181 67.4339 67.6399C67.422 67.8806 67.3531 68.1149 67.2329 68.3237C67.1126 68.5325 66.9445 68.7097 66.7423 68.8407C66.3623 69.0611 66.0469 68.8825 66.0469 68.4607C66.0592 68.2197 66.1286 67.9852 66.2496 67.7763C66.3705 67.5675 66.5394 67.3905 66.7423 67.2599Z" fill="#CFD8DC"/>
<path d="M69.0344 65.9333C69.4144 65.7129 69.726 65.8915 69.726 66.3323C69.7141 66.5729 69.6452 66.8073 69.525 67.0161C69.4047 67.2249 69.2366 67.4021 69.0344 67.5331C68.6544 67.7535 68.3428 67.5749 68.3428 67.1341C68.3546 66.8934 68.4235 66.6591 68.5438 66.4503C68.664 66.2415 68.8322 66.0643 69.0344 65.9333Z" fill="#CFD8DC"/>
<path d="M71.3254 64.6002C71.7054 64.3798 72.0208 64.5584 72.0208 65.003C72.007 65.2436 71.9369 65.4776 71.8161 65.6862C71.6953 65.8948 71.5272 66.0721 71.3254 66.2038C70.9454 66.4242 70.6338 66.2456 70.6338 65.801C70.6477 65.5608 70.7175 65.3272 70.8376 65.1188C70.9576 64.9103 71.1247 64.7328 71.3254 64.6002Z" fill="#CFD8DC"/>
<path d="M36.609 110.071L95.1632 76.2512C95.4182 76.122 95.7 76.0547 95.9859 76.0547C96.2717 76.0547 96.5536 76.122 96.8086 76.2512L99.803 77.9802C99.9022 78.0139 99.9884 78.0778 100.05 78.163C100.111 78.2482 100.143 78.3504 100.143 78.4552C100.143 78.56 100.111 78.6622 100.05 78.7474C99.9884 78.8326 99.9022 78.8965 99.803 78.9302L41.2412 112.746C40.9862 112.876 40.7043 112.943 40.4185 112.943C40.1326 112.943 39.8508 112.876 39.5958 112.746L36.609 111.021C36.5097 110.988 36.4235 110.924 36.3625 110.838C36.3014 110.753 36.2686 110.651 36.2686 110.546C36.2686 110.441 36.3014 110.339 36.3625 110.254C36.4235 110.169 36.5097 110.105 36.609 110.071Z" fill="#37474F"/>
<path d="M44.3266 114.528L102.881 80.7083C103.136 80.579 103.418 80.5117 103.703 80.5117C103.989 80.5117 104.271 80.579 104.526 80.7083L122.949 91.3483C123.048 91.3819 123.134 91.4459 123.195 91.5311C123.256 91.6163 123.289 91.7184 123.289 91.8233C123.289 91.9281 123.256 92.0303 123.195 92.1154C123.134 92.2006 123.048 92.2646 122.949 92.2983L64.4628 126.065C64.2069 126.193 63.9245 126.26 63.6382 126.26C63.3519 126.26 63.0695 126.193 62.8136 126.065L44.3304 115.471C44.2319 115.438 44.1462 115.374 44.0854 115.29C44.0246 115.206 43.9916 115.105 43.9912 115.001C43.9908 114.897 44.0229 114.795 44.083 114.711C44.1432 114.626 44.2283 114.562 44.3266 114.528Z" fill="#263238"/>
<path d="M96.8163 95.9309L98.6517 94.8707C98.7277 94.8251 98.7239 94.7491 98.6517 94.7035L96.5199 93.4799C96.4746 93.4565 96.4245 93.4444 96.3736 93.4444C96.3227 93.4444 96.2725 93.4565 96.2273 93.4799L94.3919 94.5401C94.3159 94.5819 94.3197 94.6579 94.3919 94.7073L96.5123 95.9309C96.5589 95.9561 96.6112 95.9694 96.6643 95.9694C96.7173 95.9694 96.7696 95.9561 96.8163 95.9309ZM93.1987 91.7243L91.3671 92.7807C91.2873 92.8263 91.2911 92.9023 91.3671 92.9517L93.4875 94.1753C93.533 94.1977 93.583 94.2094 93.6338 94.2094C93.6845 94.2094 93.7346 94.1977 93.7801 94.1753L95.6155 93.1151C95.6915 93.0695 95.6877 92.9935 95.6155 92.9479L93.4799 91.7319C93.4367 91.7092 93.3889 91.6967 93.3401 91.6954C93.2914 91.6941 93.243 91.704 93.1987 91.7243ZM87.2745 95.1443L84.1737 96.9341C84.0939 96.9797 84.1015 97.0557 84.1737 97.1051L86.2903 98.3287C86.3358 98.3511 86.3858 98.3628 86.4366 98.3628C86.4873 98.3628 86.5374 98.3511 86.5829 98.3287L89.6875 96.5389C89.7635 96.4933 89.7597 96.4173 89.6875 96.3717L87.5671 95.1443C87.5216 95.1218 87.4715 95.1101 87.4208 95.1101C87.37 95.1101 87.32 95.1218 87.2745 95.1443ZM90.5197 93.2709L88.6843 94.3311C88.6083 94.3729 88.6121 94.4489 88.6843 94.4983L90.8199 95.7219C90.8654 95.7443 90.9154 95.756 90.9662 95.756C91.0169 95.756 91.067 95.7443 91.1125 95.7219L92.9441 94.6617C93.0239 94.6161 93.0201 94.5401 92.9441 94.4945L90.8199 93.2785C90.7743 93.2527 90.7231 93.2385 90.6707 93.2372C90.6184 93.2358 90.5665 93.2474 90.5197 93.2709ZM83.3263 97.4243L81.4947 98.4807C81.4149 98.5263 81.4187 98.6023 81.4947 98.6517L83.6151 99.8753C83.6603 99.8986 83.7105 99.9108 83.7614 99.9108C83.8123 99.9108 83.8624 99.8986 83.9077 99.8753L85.7431 98.8189C85.8191 98.7733 85.8153 98.6973 85.7431 98.6479L83.6227 97.4243C83.5767 97.4012 83.5259 97.3892 83.4745 97.3892C83.423 97.3892 83.3723 97.4012 83.3263 97.4243ZM80.6473 98.9709L78.8157 100.027C78.7359 100.073 78.7397 100.149 78.8157 100.198L80.9399 101.422C80.9854 101.444 81.0354 101.456 81.0862 101.456C81.1369 101.456 81.187 101.444 81.2325 101.422L83.0679 100.362C83.1439 100.316 83.1401 100.24 83.0679 100.194L80.9399 98.9785C80.8952 98.9539 80.8454 98.9405 80.7945 98.9391C80.7436 98.9378 80.6931 98.9487 80.6473 98.9709ZM88.9845 103.949L90.8199 102.889C90.8959 102.843 90.8921 102.767 90.8199 102.721L88.6995 101.498C88.6542 101.475 88.6041 101.462 88.5532 101.462C88.5023 101.462 88.4521 101.475 88.4069 101.498L86.5753 102.558C86.4955 102.6 86.5031 102.676 86.5753 102.725L88.6919 103.949C88.7371 103.972 88.7873 103.984 88.8382 103.984C88.8891 103.984 88.9392 103.972 88.9845 103.949ZM86.3245 105.495L88.1599 104.435C88.2359 104.39 88.2321 104.317 88.1599 104.268L86.0395 103.044C85.9942 103.021 85.9441 103.009 85.8932 103.009C85.8423 103.009 85.7921 103.021 85.7469 103.044L83.9153 104.105C83.8355 104.15 83.8393 104.222 83.9153 104.272L86.0357 105.495C86.0779 105.515 86.1239 105.525 86.1706 105.525C86.2172 105.525 86.2632 105.515 86.3055 105.495H86.3245ZM83.6455 107.042L85.4809 105.982C85.5569 105.94 85.5531 105.864 85.4809 105.815L83.3605 104.591C83.3152 104.568 83.2651 104.556 83.2142 104.556C83.1633 104.556 83.1131 104.568 83.0679 104.591L81.2059 105.64C81.1261 105.685 81.1299 105.761 81.2059 105.807L83.3263 107.031C83.3715 107.057 83.4226 107.072 83.4749 107.074C83.5273 107.076 83.5793 107.065 83.6265 107.042H83.6455ZM80.9855 108.589L82.8209 107.528C82.8969 107.487 82.8931 107.411 82.8209 107.361L80.7005 106.138C80.655 106.115 80.6049 106.104 80.5542 106.104C80.5034 106.104 80.4534 106.115 80.4079 106.138L78.5725 107.198C78.4965 107.243 78.5003 107.319 78.5725 107.365L80.6929 108.589C80.732 108.605 80.7739 108.614 80.8164 108.614C80.8588 108.614 80.9007 108.605 80.9399 108.589H80.9855ZM94.1753 97.4775L96.0069 96.4173C96.0867 96.3717 96.0829 96.2995 96.0069 96.2501L93.8599 95.0265C93.8146 95.0031 93.7645 94.991 93.7136 94.991C93.6627 94.991 93.6125 95.0031 93.5673 95.0265L91.7319 96.0867C91.6559 96.1323 91.6597 96.2045 91.7319 96.2539L93.8599 97.4699C93.9025 97.4919 93.9497 97.5041 93.9977 97.5054C94.0457 97.5067 94.0934 97.4971 94.1373 97.4775H94.1753ZM91.7053 102.417L95.7599 100.039C95.8359 99.9931 95.8321 99.9171 95.7599 99.8715L90.5957 96.8999C90.5504 96.8765 90.5003 96.8644 90.4494 96.8644C90.3985 96.8644 90.3483 96.8765 90.3031 96.8999L88.1903 98.1197C88.1105 98.1653 88.1143 98.2413 88.1903 98.2907L90.9187 99.8639C91.0023 99.9133 91.0061 99.9893 90.9187 100.031L89.2277 101.008C89.1479 101.053 89.1555 101.129 89.2277 101.179L91.3481 102.402C91.3969 102.429 91.4518 102.443 91.5077 102.443C91.5635 102.443 91.6184 102.429 91.6673 102.402L91.7053 102.417ZM78.0253 100.517L76.1899 101.578C76.1139 101.619 76.1177 101.695 76.1899 101.745L78.2799 102.98C78.3254 103.002 78.3754 103.014 78.4262 103.014C78.4769 103.014 78.527 103.002 78.5725 102.98L80.4041 101.92C80.4839 101.874 80.4801 101.798 80.4041 101.752L78.2799 100.525C78.2329 100.497 78.1796 100.482 78.125 100.481C78.0705 100.479 78.0165 100.492 77.9683 100.517H78.0253ZM75.3463 102.064L73.5109 103.124C73.4349 103.17 73.4387 103.242 73.5109 103.291L75.6313 104.515C75.6765 104.538 75.7267 104.551 75.7776 104.551C75.8285 104.551 75.8786 104.538 75.9239 104.515L77.7555 103.455C77.8353 103.409 77.8315 103.333 77.7555 103.288L75.6351 102.064C75.5835 102.031 75.5235 102.013 75.4622 102.013C75.4008 102.013 75.3408 102.031 75.2893 102.064H75.3463ZM61.9551 119.411C62.0003 119.434 62.0505 119.447 62.1014 119.447C62.1523 119.447 62.2024 119.434 62.2477 119.411L64.0831 118.351C64.1591 118.305 64.1553 118.229 64.0831 118.184L61.9627 116.96C61.9174 116.937 61.8673 116.925 61.8164 116.925C61.7655 116.925 61.7153 116.937 61.6701 116.96L59.8385 118.02C59.7587 118.062 59.7625 118.138 59.8385 118.187L61.9551 119.411ZM53.9105 114.441L52.0181 115.52C51.9421 115.562 51.9459 115.638 52.0181 115.687L54.1385 116.911C54.184 116.933 54.234 116.945 54.2848 116.945C54.3355 116.945 54.3856 116.933 54.4311 116.911L56.2627 115.85C56.3425 115.805 56.3387 115.729 56.2627 115.683L54.1423 114.46C54.099 114.434 54.0503 114.419 54.0001 114.416C53.9499 114.412 53.8997 114.421 53.8535 114.441H53.9105ZM58.2235 118.07C58.2687 118.093 58.3189 118.105 58.3698 118.105C58.4207 118.105 58.4708 118.093 58.5161 118.07L60.3477 117.009C60.4275 116.964 60.4199 116.888 60.3477 116.842L58.2273 115.619C58.182 115.595 58.1319 115.583 58.081 115.583C58.0301 115.583 57.9799 115.595 57.9347 115.619L56.1031 116.679C56.0271 116.724 56.0309 116.797 56.1031 116.846L58.2235 118.07ZM66.6861 120.35L68.5215 119.289C68.5975 119.244 68.5937 119.168 68.5215 119.122L66.4011 117.899C66.3558 117.875 66.3057 117.863 66.2548 117.863C66.2039 117.863 66.1537 117.875 66.1085 117.899L64.2199 118.94C64.1401 118.982 64.1439 119.058 64.2199 119.107L66.3403 120.331C66.3835 120.356 66.432 120.371 66.482 120.375C66.5321 120.379 66.5823 120.372 66.6291 120.353L66.6861 120.35ZM63.7145 121.87C63.7597 121.893 63.8099 121.905 63.8608 121.905C63.9117 121.905 63.9618 121.893 64.0071 121.87L65.8425 120.809C65.9185 120.764 65.9147 120.688 65.8425 120.642L63.7221 119.419C63.6768 119.395 63.6267 119.383 63.5758 119.383C63.5249 119.383 63.4747 119.395 63.4295 119.419L61.5941 120.479C61.5181 120.521 61.5219 120.597 61.5941 120.646L63.7145 121.87ZM56.5895 112.871L54.7541 113.928C54.6781 113.973 54.6819 114.049 54.7541 114.099L56.8745 115.322C56.92 115.345 56.97 115.356 57.0208 115.356C57.0715 115.356 57.1216 115.345 57.1671 115.322L58.9987 114.262C59.0785 114.216 59.0747 114.14 58.9987 114.095L56.8783 112.867C56.8238 112.839 56.7626 112.827 56.7016 112.832C56.6405 112.836 56.582 112.858 56.5325 112.894L56.5895 112.871ZM69.9199 105.157L68.0845 106.217C68.0085 106.263 68.0123 106.339 68.0845 106.385L70.2049 107.608C70.2501 107.632 70.3003 107.644 70.3512 107.644C70.4021 107.644 70.4522 107.632 70.4975 107.608L72.3291 106.548C72.4089 106.506 72.4013 106.43 72.3291 106.381L70.2087 105.157C70.1638 105.135 70.1144 105.123 70.0643 105.123C70.0141 105.123 69.9647 105.135 69.9199 105.157ZM59.2115 111.34L57.3799 112.404C57.3001 112.449 57.3039 112.525 57.3799 112.575L59.5003 113.798C59.5455 113.822 59.5957 113.834 59.6466 113.834C59.6975 113.834 59.7476 113.822 59.7929 113.798L61.6283 112.742C61.7043 112.696 61.7005 112.62 61.6283 112.571L59.5041 111.34C59.4586 111.317 59.4085 111.306 59.3578 111.306C59.307 111.306 59.257 111.317 59.2115 111.34ZM72.6103 103.603L70.7749 104.663C70.6989 104.709 70.7027 104.785 70.7749 104.83L72.8953 106.054C72.9405 106.077 72.9907 106.09 73.0416 106.09C73.0925 106.09 73.1426 106.077 73.1879 106.054L75.0195 104.994C75.0993 104.948 75.0917 104.876 75.0195 104.827L72.8991 103.603C72.8537 103.582 72.8039 103.571 72.7537 103.572C72.7036 103.574 72.6544 103.587 72.6103 103.611V103.603ZM67.2599 106.704L65.4283 107.764C65.3485 107.81 65.3561 107.886 65.4283 107.931L67.5487 109.155C67.5939 109.178 67.6441 109.19 67.695 109.19C67.7459 109.19 67.796 109.178 67.8413 109.155L69.6729 108.098C69.7489 108.053 69.7451 107.977 69.6729 107.927L67.5525 106.704C67.507 106.681 67.4569 106.67 67.4062 106.67C67.3554 106.67 67.3054 106.681 67.2599 106.704ZM64.5809 108.254L62.7493 109.311C62.6695 109.356 62.6771 109.432 62.7493 109.478L64.8659 110.705C64.9114 110.728 64.9614 110.739 65.0122 110.739C65.0629 110.739 65.113 110.728 65.1585 110.705L66.9939 109.649C67.0699 109.603 67.0661 109.527 66.9939 109.478L64.8735 108.254C64.8268 108.229 64.7745 108.216 64.7215 108.216C64.6684 108.216 64.6161 108.229 64.5695 108.254H64.5809ZM61.9209 109.801L60.0893 110.857C60.0095 110.903 60.0133 110.979 60.0893 111.028L62.2097 112.252C62.2552 112.274 62.3052 112.286 62.356 112.286C62.4067 112.286 62.4568 112.274 62.5023 112.252L64.3377 111.195C64.4137 111.15 64.4099 111.074 64.3377 111.024L62.1831 109.82C62.1376 109.797 62.0875 109.786 62.0368 109.786C61.986 109.786 61.936 109.797 61.8905 109.82L61.9209 109.801ZM75.6009 111.682L77.4325 110.625C77.5123 110.58 77.5047 110.504 77.4325 110.454L75.3121 109.231C75.2668 109.208 75.2167 109.195 75.1658 109.195C75.1149 109.195 75.0647 109.208 75.0195 109.231L73.1841 110.287C73.1081 110.333 73.1119 110.409 73.1841 110.458L75.3045 111.682C75.349 111.703 75.3976 111.714 75.447 111.714C75.4963 111.714 75.545 111.703 75.5895 111.682H75.6009ZM99.1343 88.3043L97.2799 89.3645C97.2039 89.4063 97.2077 89.4823 97.2799 89.5317L99.4003 90.7553C99.4458 90.7777 99.4958 90.7894 99.5466 90.7894C99.5973 90.7894 99.6474 90.7777 99.6929 90.7553L101.524 89.6951C101.604 89.6495 101.6 89.5735 101.524 89.5279L99.4041 88.3043C99.3603 88.2828 99.3122 88.2716 99.2635 88.2716C99.2147 88.2716 99.1666 88.2828 99.1229 88.3043H99.1343ZM95.8891 90.1777L94.0575 91.2341C93.9777 91.2797 93.9815 91.3557 94.0575 91.4051L96.1779 92.6287C96.2231 92.652 96.2733 92.6642 96.3242 92.6642C96.3751 92.6642 96.4252 92.652 96.4705 92.6287L98.3059 91.5723C98.3819 91.5267 98.3781 91.4507 98.3059 91.4013L96.1855 90.1777C96.138 90.1527 96.0852 90.1397 96.0316 90.1397C95.9779 90.1397 95.9251 90.1527 95.8777 90.1777H95.8891ZM101.813 86.7577L99.9779 87.8141C99.9019 87.8597 99.9057 87.9357 99.9779 87.9851L102.098 89.2087C102.144 89.2311 102.194 89.2428 102.245 89.2428C102.295 89.2428 102.345 89.2311 102.391 89.2087L104.222 88.1485C104.302 88.1029 104.298 88.0269 104.222 87.9813L102.102 86.7539C102.055 86.7308 102.004 86.7191 101.951 86.7197C101.899 86.7204 101.848 86.7334 101.802 86.7577H101.813ZM87.9319 101.08L89.7673 100.02C89.8433 99.9741 89.8395 99.8981 89.7673 99.8525L87.6469 98.6251C87.6014 98.6026 87.5513 98.5909 87.5006 98.5909C87.4498 98.5909 87.3998 98.6026 87.3543 98.6251L85.4999 99.6587C85.4239 99.7043 85.4277 99.7803 85.4999 99.8297L87.6203 101.053C87.666 101.083 87.7183 101.101 87.7727 101.106C87.8271 101.11 87.8818 101.101 87.9319 101.08ZM104.773 85.2339C104.728 85.2114 104.678 85.1997 104.627 85.1997C104.576 85.1997 104.526 85.2114 104.481 85.2339L102.649 86.2599C102.569 86.3055 102.573 86.3815 102.649 86.4309L104.77 87.6545C104.815 87.6778 104.865 87.69 104.916 87.69C104.967 87.69 105.017 87.6778 105.062 87.6545L106.898 86.5981C106.974 86.5525 106.97 86.4765 106.898 86.4271L104.773 85.2339ZM78.2799 110.135L80.1115 109.079C80.1913 109.033 80.1875 108.957 80.1115 108.908L77.9911 107.684C77.9456 107.662 77.8955 107.65 77.8448 107.65C77.794 107.65 77.744 107.662 77.6985 107.684L75.8631 108.744C75.7871 108.79 75.7909 108.866 75.8631 108.912L77.9835 110.139C78.0298 110.162 78.0807 110.173 78.1321 110.172C78.1836 110.172 78.2342 110.159 78.2799 110.135ZM111.138 91.1657L112.97 90.1055C113.05 90.0599 113.046 89.9839 112.97 89.9383L110.85 88.7147C110.804 88.6913 110.754 88.6792 110.703 88.6792C110.652 88.6792 110.602 88.6913 110.557 88.7147L108.722 89.7749C108.646 89.8167 108.649 89.8927 108.722 89.9421L110.842 91.1657C110.886 91.1877 110.935 91.1992 110.985 91.1992C111.034 91.1992 111.083 91.1877 111.127 91.1657H111.138ZM105.438 90.9643L107.27 89.9041C107.35 89.8585 107.346 89.7825 107.27 89.7369L105.15 88.5133C105.104 88.4899 105.054 88.4778 105.003 88.4778C104.952 88.4778 104.902 88.4899 104.857 88.5133L102.98 89.5659C102.904 89.6077 102.908 89.6837 102.98 89.7331L105.1 90.9567C105.148 90.9858 105.203 91.0019 105.259 91.0032C105.315 91.0046 105.37 90.9911 105.419 90.9643H105.438ZM107.821 86.9629C107.776 86.9404 107.726 86.9287 107.675 86.9287C107.624 86.9287 107.574 86.9404 107.528 86.9629L105.693 88.0193C105.617 88.0649 105.621 88.1409 105.693 88.1903L107.813 89.4139C107.859 89.4363 107.909 89.448 107.96 89.448C108.011 89.448 108.061 89.4363 108.106 89.4139L109.941 88.3537C110.017 88.3081 110.014 88.2321 109.941 88.1865L107.821 86.9629ZM108.383 86.6399L113.532 89.6115C113.578 89.6339 113.628 89.6456 113.679 89.6456C113.729 89.6456 113.78 89.6339 113.825 89.6115L115.66 88.5513C115.736 88.5057 115.733 88.4297 115.66 88.3841L110.511 85.4087C110.466 85.3862 110.416 85.3745 110.365 85.3745C110.314 85.3745 110.264 85.3862 110.219 85.4087L108.387 86.4651C108.277 86.5145 108.3 86.5905 108.364 86.6399H108.383ZM102.17 90.0599L100.32 91.1125C100.244 91.1581 100.248 91.2303 100.32 91.2797L102.44 92.5033C102.485 92.5266 102.536 92.5388 102.587 92.5388C102.637 92.5388 102.688 92.5266 102.733 92.5033L104.564 91.4431C104.644 91.3975 104.64 91.3253 104.564 91.2759L102.444 90.0599C102.399 90.0365 102.349 90.0244 102.298 90.0244C102.247 90.0244 102.197 90.0365 102.151 90.0599H102.17ZM82.0039 101.703L80.1685 102.763C80.0925 102.809 80.0963 102.881 80.1685 102.93L82.2889 104.154C82.3341 104.177 82.3843 104.19 82.4352 104.19C82.4861 104.19 82.5362 104.177 82.5815 104.154L84.4131 103.094C84.4929 103.048 84.4853 102.976 84.4131 102.927L82.2965 101.703C82.2495 101.675 82.1962 101.66 82.1417 101.659C82.0871 101.657 82.0331 101.67 81.9849 101.695L82.0039 101.703ZM108.155 92.7199C108.201 92.7432 108.251 92.7554 108.302 92.7554C108.353 92.7554 108.403 92.7432 108.448 92.7199L110.28 91.6597C110.359 91.6141 110.356 91.5419 110.28 91.4925L108.159 90.2689C108.114 90.2455 108.064 90.2334 108.013 90.2334C107.962 90.2334 107.912 90.2455 107.867 90.2689L106.02 91.3139C105.944 91.3595 105.948 91.4317 106.02 91.4811L108.155 92.7199ZM84.6639 100.149L82.8399 101.209C82.7639 101.251 82.7677 101.327 82.8399 101.376L84.9603 102.6C85.0055 102.623 85.0557 102.635 85.1066 102.635C85.1575 102.635 85.2076 102.623 85.2529 102.6L87.0845 101.54C87.1643 101.494 87.1605 101.418 87.0845 101.372L84.9641 100.149C84.9179 100.124 84.8663 100.111 84.814 100.111C84.7616 100.111 84.7101 100.124 84.6639 100.149ZM64.5771 117.864C64.6226 117.887 64.6726 117.899 64.7234 117.899C64.7741 117.899 64.8242 117.887 64.8697 117.864L66.7051 116.804C66.7811 116.759 66.7773 116.683 66.7051 116.637L64.5847 115.413C64.5394 115.39 64.4893 115.378 64.4384 115.378C64.3875 115.378 64.3373 115.39 64.2921 115.413L62.4605 116.474C62.3807 116.515 62.3845 116.591 62.4605 116.641L64.5771 117.864ZM60.5491 114.064L58.7137 115.14C58.6377 115.182 58.6415 115.258 58.7137 115.307L60.8341 116.531C60.8796 116.553 60.9296 116.565 60.9804 116.565C61.0311 116.565 61.0812 116.553 61.1267 116.531L62.9583 115.47C63.0381 115.425 63.0305 115.349 62.9583 115.303L60.8417 114.08C60.797 114.055 60.7472 114.042 60.6963 114.04C60.6454 114.039 60.5949 114.05 60.5491 114.072V114.064ZM67.5487 116.318L69.3841 115.258C69.4601 115.212 69.4563 115.136 69.3841 115.09L67.2599 113.871C67.2144 113.848 67.1643 113.837 67.1136 113.837C67.0628 113.837 67.0128 113.848 66.9673 113.871L65.1357 114.927C65.0559 114.973 65.0635 115.049 65.1357 115.098L67.2599 116.318C67.3043 116.341 67.3534 116.354 67.4034 116.355C67.4534 116.356 67.5031 116.346 67.5487 116.325V116.318ZM70.2315 114.767L72.0631 113.711C72.1391 113.665 72.1353 113.589 72.0631 113.54L69.9199 112.324C69.8744 112.302 69.8243 112.29 69.7736 112.29C69.7228 112.29 69.6728 112.302 69.6273 112.324L67.7957 113.38C67.7159 113.426 67.7235 113.502 67.7957 113.551L69.9161 114.775C69.9654 114.8 70.0205 114.812 70.0758 114.809C70.1311 114.807 70.1847 114.79 70.2315 114.76V114.767ZM72.9105 113.221L74.7421 112.164C74.8219 112.119 74.8143 112.043 74.7421 111.993L72.6217 110.77C72.5768 110.747 72.5274 110.736 72.4773 110.736C72.4271 110.736 72.3777 110.747 72.3329 110.77L70.4975 111.826C70.4215 111.872 70.4253 111.948 70.4975 111.997L72.6179 113.24C72.6634 113.262 72.7134 113.274 72.7642 113.274C72.8149 113.274 72.865 113.262 72.9105 113.24V113.221ZM63.2281 112.518L61.3927 113.574C61.3167 113.62 61.3205 113.696 61.3927 113.745L63.5131 114.969C63.5586 114.991 63.6086 115.003 63.6594 115.003C63.7101 115.003 63.7602 114.991 63.8057 114.969L65.6373 113.909C65.7171 113.863 65.7133 113.787 65.6373 113.741L63.5169 112.514C63.471 112.494 63.4212 112.485 63.3711 112.487C63.3211 112.489 63.2722 112.502 63.2281 112.525V112.518ZM65.9071 110.971L64.0717 112.028C63.9957 112.073 63.9995 112.149 64.0717 112.199L66.1921 113.422C66.2373 113.446 66.2875 113.458 66.3384 113.458C66.3893 113.458 66.4394 113.446 66.4847 113.422L68.3163 112.366C68.3961 112.32 68.3923 112.244 68.3163 112.195L66.1959 110.971C66.1503 110.951 66.1006 110.941 66.0506 110.942C66.0006 110.943 65.9515 110.956 65.9071 110.979V110.971ZM76.6231 104.781L74.7915 105.841C74.7117 105.887 74.7193 105.963 74.7915 106.008L76.9119 107.232C76.9564 107.255 77.006 107.268 77.0563 107.268C77.1065 107.268 77.1561 107.255 77.2007 107.232L79.0361 106.172C79.1121 106.13 79.1083 106.054 79.0361 106.005L76.9157 104.781C76.8696 104.76 76.8192 104.749 76.7685 104.751C76.7177 104.752 76.668 104.765 76.6231 104.789V104.781ZM73.9631 106.328L72.1315 107.388C72.0517 107.433 72.0593 107.509 72.1315 107.555L74.2481 108.782C74.2936 108.805 74.3436 108.817 74.3944 108.817C74.4451 108.817 74.4952 108.805 74.5407 108.782L76.3761 107.726C76.4521 107.68 76.4483 107.604 76.3761 107.555L74.2557 106.331C74.2074 106.306 74.1537 106.294 74.0994 106.294C74.045 106.295 73.9917 106.309 73.9441 106.335L73.9631 106.328ZM79.3249 103.234L77.4895 104.295C77.4135 104.34 77.4173 104.416 77.4895 104.462L79.6099 105.685C79.6551 105.709 79.7053 105.721 79.7562 105.721C79.8071 105.721 79.8572 105.709 79.9025 105.685L81.7341 104.625C81.8139 104.583 81.8063 104.507 81.7341 104.458L79.6137 103.234C79.5661 103.209 79.5127 103.196 79.4588 103.198C79.4048 103.199 79.3521 103.214 79.3059 103.242L79.3249 103.234ZM68.5861 109.44L66.7545 110.496C66.6747 110.542 66.6785 110.618 66.7545 110.667L68.8749 111.891C68.9204 111.913 68.9704 111.925 69.0212 111.925C69.0719 111.925 69.122 111.913 69.1675 111.891L71.0029 110.834C71.0789 110.789 71.0751 110.713 71.0029 110.663L68.8787 109.44C68.8332 109.417 68.7831 109.406 68.7324 109.406C68.6816 109.406 68.6316 109.417 68.5861 109.44ZM71.2461 107.893L69.4145 108.95C69.3347 108.995 69.3385 109.071 69.4145 109.121L71.5349 110.344C71.5804 110.367 71.6304 110.378 71.6812 110.378C71.7319 110.378 71.782 110.367 71.8275 110.344L73.6629 109.288C73.7389 109.242 73.7351 109.166 73.6629 109.117L71.5425 107.893C71.4998 107.871 71.4527 107.859 71.4046 107.858C71.3566 107.856 71.3089 107.866 71.2651 107.886L71.2461 107.893ZM69.2891 118.814L71.1245 117.754C71.2005 117.709 71.1967 117.633 71.1245 117.587L69.0041 116.36C68.9586 116.337 68.9085 116.326 68.8578 116.326C68.807 116.326 68.757 116.337 68.7115 116.36L66.8799 117.42C66.8001 117.465 66.8039 117.541 66.8799 117.591L68.9965 118.814C69.045 118.839 69.0989 118.851 69.1532 118.85C69.2076 118.848 69.2607 118.834 69.3081 118.807L69.2891 118.814ZM53.5799 117.218L51.4633 115.995C51.418 115.972 51.3679 115.959 51.317 115.959C51.2661 115.959 51.2159 115.972 51.1707 115.995L49.3391 117.04C49.2631 117.082 49.2669 117.158 49.3391 117.207L51.4595 118.431C51.5047 118.454 51.5549 118.466 51.6058 118.466C51.6567 118.466 51.7068 118.454 51.7521 118.431L53.5837 117.37C53.6749 117.34 53.6673 117.264 53.5799 117.218ZM57.5965 118.396L55.4799 117.173C55.4346 117.15 55.3845 117.137 55.3336 117.137C55.2827 117.137 55.2325 117.15 55.1873 117.173L52.3677 118.803C52.2917 118.849 52.2955 118.921 52.3677 118.97L54.4881 120.194C54.5333 120.217 54.5835 120.229 54.6344 120.229C54.6853 120.229 54.7354 120.217 54.7807 120.194L57.6003 118.564C57.6877 118.518 57.6839 118.446 57.6003 118.396H57.5965ZM50.3309 114.851L48.2143 113.62C48.1688 113.597 48.1187 113.586 48.068 113.586C48.0172 113.586 47.9672 113.597 47.9217 113.62L45.6645 114.923C45.5847 114.969 45.5923 115.045 45.6645 115.094L47.7811 116.318C47.8266 116.34 47.8766 116.352 47.9274 116.352C47.9781 116.352 48.0282 116.34 48.0737 116.318L50.3309 115.014C50.4221 114.976 50.4183 114.9 50.3347 114.851H50.3309ZM52.0599 113.852C52.1051 113.875 52.1553 113.887 52.2062 113.887C52.2571 113.887 52.3072 113.875 52.3525 113.852L54.1841 112.791C54.2639 112.746 54.2563 112.674 54.1841 112.624L52.0599 111.408C52.0146 111.385 51.9645 111.373 51.9136 111.373C51.8627 111.373 51.8125 111.385 51.7673 111.408L49.9319 112.48C49.8559 112.525 49.8597 112.598 49.9319 112.647L52.0599 113.852ZM61.3319 119.738L59.2115 118.514C59.1662 118.491 59.1161 118.479 59.0652 118.479C59.0143 118.479 58.9641 118.491 58.9189 118.514L55.3925 120.551C55.3165 120.597 55.3203 120.673 55.3925 120.718L57.5129 121.942C57.5581 121.965 57.6083 121.977 57.6592 121.977C57.7101 121.977 57.7602 121.965 57.8055 121.942L61.3281 119.905C61.4231 119.859 61.4193 119.787 61.3357 119.738H61.3319ZM63.0913 122.219L60.9709 120.996C60.9256 120.972 60.8755 120.96 60.8246 120.96C60.7737 120.96 60.7235 120.972 60.6783 120.996L58.4211 122.299C58.3451 122.345 58.3489 122.421 58.4211 122.466L60.5415 123.694C60.587 123.716 60.637 123.728 60.6878 123.728C60.7385 123.728 60.7886 123.716 60.8341 123.694L63.0875 122.39C63.1825 122.36 63.1787 122.269 63.0799 122.219H63.0913ZM71.9795 102.349C72.0247 102.372 72.0749 102.385 72.1258 102.385C72.1767 102.385 72.2268 102.372 72.2721 102.349L74.1075 101.289C74.1835 101.247 74.1797 101.171 74.1075 101.122L71.9871 99.8981C71.9418 99.8747 71.8917 99.8626 71.8408 99.8626C71.7899 99.8626 71.7397 99.8747 71.6945 99.8981L69.8629 100.958C69.7831 101.004 69.7907 101.08 69.8629 101.125L71.9795 102.349ZM66.6215 105.446C66.667 105.469 66.717 105.48 66.7678 105.48C66.8185 105.48 66.8686 105.469 66.9141 105.446L68.7495 104.39C68.8255 104.344 68.8217 104.268 68.7495 104.219L66.6291 102.995C66.5836 102.973 66.5335 102.961 66.4828 102.961C66.432 102.961 66.382 102.973 66.3365 102.995L64.5049 104.055C64.4251 104.101 64.4289 104.177 64.5049 104.222L66.6215 105.446ZM54.7389 112.305C54.7841 112.328 54.8343 112.341 54.8852 112.341C54.9361 112.341 54.9862 112.328 55.0315 112.305L56.8631 111.245C56.9429 111.199 56.9391 111.123 56.8631 111.078L54.7427 109.854C54.6974 109.831 54.6473 109.819 54.5964 109.819C54.5455 109.819 54.4953 109.831 54.4501 109.854L52.6147 110.914C52.5387 110.956 52.5425 111.032 52.6147 111.081L54.7389 112.305ZM69.3005 103.896C69.3457 103.919 69.3959 103.931 69.4468 103.931C69.4977 103.931 69.5478 103.919 69.5931 103.896L71.4285 102.835C71.5045 102.794 71.5007 102.718 71.4285 102.668L69.3005 101.46C69.255 101.437 69.2049 101.426 69.1542 101.426C69.1034 101.426 69.0534 101.437 69.0079 101.46L67.1763 102.52C67.0965 102.566 67.1003 102.642 67.1763 102.687L69.3005 103.896ZM63.9425 106.993C63.988 107.015 64.038 107.027 64.0888 107.027C64.1395 107.027 64.1896 107.015 64.2351 106.993L66.0705 105.936C66.1465 105.891 66.1427 105.815 66.0705 105.765L63.9501 104.542C63.9048 104.518 63.8547 104.506 63.8038 104.506C63.7529 104.506 63.7027 104.518 63.6575 104.542L61.8221 105.598C61.7461 105.644 61.7499 105.72 61.8221 105.769L63.9425 106.993ZM64.5619 122.417C64.5166 122.394 64.4665 122.381 64.4156 122.381C64.3647 122.381 64.3145 122.394 64.2693 122.417L61.4497 124.043C61.3737 124.089 61.3775 124.165 61.4497 124.214L63.5701 125.438C63.6156 125.46 63.6656 125.472 63.7164 125.472C63.7671 125.472 63.8172 125.46 63.8627 125.438L66.6823 123.811C66.7583 123.766 66.7545 123.69 66.6823 123.64L64.5619 122.417ZM60.1007 109.212C60.1459 109.235 60.1961 109.247 60.247 109.247C60.2979 109.247 60.348 109.235 60.3933 109.212L62.2287 108.155C62.3047 108.11 62.3009 108.034 62.2287 107.984L60.0969 106.78C60.0514 106.757 60.0013 106.746 59.9506 106.746C59.8998 106.746 59.8498 106.757 59.8043 106.78L57.9727 107.836C57.8929 107.882 57.8967 107.958 57.9727 108.007L60.1007 109.212ZM57.4407 110.758C57.4862 110.781 57.5362 110.793 57.587 110.793C57.6377 110.793 57.6878 110.781 57.7333 110.758L59.5649 109.698C59.6447 109.653 59.6409 109.577 59.5649 109.531L57.4179 108.3C57.3726 108.277 57.3225 108.264 57.2716 108.264C57.2207 108.264 57.1705 108.277 57.1253 108.3L55.2899 109.356C55.2139 109.402 55.2177 109.478 55.2899 109.527L57.4407 110.758ZM114.228 93.7573C114.182 93.7348 114.132 93.7231 114.082 93.7231C114.031 93.7231 113.981 93.7348 113.935 93.7573L109.421 96.3641C109.345 96.4097 109.349 96.4857 109.421 96.5351L111.541 97.7587C111.587 97.7811 111.637 97.7928 111.688 97.7928C111.738 97.7928 111.788 97.7811 111.834 97.7587L116.344 95.1519C116.424 95.1101 116.42 95.0341 116.344 94.9847L114.228 93.7573ZM108.304 97.1773C108.258 97.1539 108.208 97.1418 108.157 97.1418C108.106 97.1418 108.056 97.1539 108.011 97.1773L106.179 98.2375C106.1 98.2831 106.103 98.3591 106.179 98.4047L108.3 99.6283C108.345 99.6516 108.395 99.6638 108.446 99.6638C108.497 99.6638 108.547 99.6516 108.592 99.6283L110.428 98.5681C110.504 98.5263 110.5 98.4503 110.428 98.4009L108.304 97.1773ZM72.0061 117.256L73.8415 116.2C73.9175 116.154 73.9137 116.078 73.8415 116.029L71.7211 114.805C71.6756 114.783 71.6255 114.771 71.5748 114.771C71.524 114.771 71.474 114.783 71.4285 114.805L69.5969 115.862C69.5171 115.907 69.5247 115.983 69.5969 116.033L71.7173 117.256C71.7594 117.277 71.8055 117.287 71.8522 117.287C71.8989 117.287 71.945 117.277 71.9871 117.256H72.0061ZM102.946 100.27C102.9 100.247 102.85 100.235 102.799 100.235C102.748 100.235 102.698 100.247 102.653 100.27L100.818 101.327C100.742 101.372 100.745 101.448 100.818 101.498L102.938 102.721C102.984 102.744 103.034 102.756 103.084 102.756C103.135 102.756 103.185 102.744 103.231 102.721L105.062 101.665C105.142 101.619 105.138 101.543 105.062 101.494L102.946 100.27ZM116.907 92.2107C116.862 92.1873 116.811 92.1752 116.761 92.1752C116.71 92.1752 116.66 92.1873 116.614 92.2107L114.76 93.2633C114.684 93.3089 114.688 93.3849 114.76 93.4305L116.88 94.6541C116.925 94.6774 116.976 94.6896 117.027 94.6896C117.077 94.6896 117.128 94.6774 117.173 94.6541L119.004 93.5939C119.084 93.5521 119.08 93.4761 119.004 93.4267L116.907 92.2107ZM121.706 91.8877L116.538 88.9199C116.493 88.8965 116.443 88.8844 116.392 88.8844C116.341 88.8844 116.291 88.8965 116.246 88.9199L114.414 89.9801C114.334 90.0219 114.338 90.0979 114.414 90.1473L119.571 93.0999C119.616 93.1232 119.666 93.1354 119.717 93.1354C119.768 93.1354 119.818 93.1232 119.863 93.0999L121.699 92.0397C121.775 92.0093 121.771 91.9371 121.687 91.8877H121.706ZM92.9327 106.05C92.8872 106.028 92.8371 106.016 92.7864 106.016C92.7356 106.016 92.6856 106.028 92.6401 106.05L90.3829 107.354C90.3031 107.395 90.3107 107.471 90.3829 107.521L92.5033 108.744C92.5485 108.768 92.5987 108.78 92.6496 108.78C92.7005 108.78 92.7506 108.768 92.7959 108.744L95.0493 107.441C95.1291 107.395 95.1253 107.319 95.0493 107.274L92.9327 106.05ZM99.7005 102.144C99.655 102.121 99.6049 102.11 99.5542 102.11C99.5034 102.11 99.4534 102.121 99.4079 102.144L96.5883 103.774C96.5085 103.82 96.5161 103.896 96.5883 103.941L98.7087 105.165C98.7539 105.188 98.8041 105.2 98.855 105.2C98.9059 105.2 98.956 105.188 99.0013 105.165L101.821 103.535C101.897 103.493 101.893 103.417 101.821 103.367L99.7005 102.144ZM86.7273 109.634C86.682 109.61 86.6319 109.598 86.581 109.598C86.5301 109.598 86.4799 109.61 86.4347 109.634L71.3259 118.339C71.2461 118.385 71.2537 118.461 71.3259 118.51L73.4425 119.734C73.488 119.757 73.538 119.768 73.5888 119.768C73.6395 119.768 73.6896 119.757 73.7351 119.734L88.8249 111.024C88.9047 110.979 88.9009 110.903 88.8249 110.853L86.7273 109.634ZM70.7901 118.833C70.7446 118.811 70.6945 118.799 70.6438 118.799C70.593 118.799 70.543 118.811 70.4975 118.833L68.2403 120.137C68.1643 120.179 68.1681 120.255 68.2403 120.304L70.3607 121.528C70.4059 121.551 70.4561 121.563 70.507 121.563C70.5579 121.563 70.608 121.551 70.6533 121.528L72.9105 120.224C72.9865 120.179 72.9827 120.103 72.9105 120.057L70.7901 118.833ZM89.8281 107.844C89.7828 107.821 89.7327 107.808 89.6818 107.808C89.6309 107.808 89.5807 107.821 89.5355 107.844L87.2821 109.147C87.2023 109.193 87.2061 109.269 87.2821 109.314L89.4025 110.542C89.448 110.564 89.498 110.576 89.5488 110.576C89.5995 110.576 89.6496 110.564 89.6951 110.542L91.9523 109.238C92.0283 109.193 92.0245 109.121 91.9523 109.071L89.8281 107.844ZM67.6893 120.627C67.644 120.604 67.5939 120.592 67.543 120.592C67.4921 120.592 67.4419 120.604 67.3967 120.627L65.1395 121.93C65.0597 121.976 65.0673 122.052 65.1395 122.098L67.2599 123.325C67.3047 123.347 67.3541 123.359 67.4043 123.359C67.4544 123.359 67.5038 123.347 67.5487 123.325L69.8059 122.022C69.8857 121.976 69.8819 121.904 69.8059 121.854L67.6893 120.627ZM96.0335 104.26C95.988 104.238 95.9379 104.226 95.8872 104.226C95.8364 104.226 95.7864 104.238 95.7409 104.26L93.4799 105.556C93.4039 105.602 93.4077 105.678 93.4799 105.727L95.6003 106.951C95.6455 106.974 95.6957 106.986 95.7466 106.986C95.7975 106.986 95.8476 106.974 95.8929 106.951L98.1501 105.651C98.2261 105.606 98.2223 105.53 98.1501 105.48L96.0335 104.26ZM105.625 98.7239C105.579 98.7014 105.529 98.6897 105.478 98.6897C105.428 98.6897 105.378 98.7014 105.332 98.7239L103.497 99.7841C103.421 99.8297 103.424 99.9057 103.497 99.9513L105.617 101.179C105.663 101.201 105.713 101.213 105.763 101.213C105.814 101.213 105.864 101.201 105.91 101.179L107.741 100.122C107.821 100.077 107.817 100.001 107.741 99.9513L105.625 98.7239ZM111.496 94.4603L113.327 93.4001C113.407 93.3583 113.403 93.2823 113.327 93.2329L111.207 92.0093C111.162 91.9859 111.111 91.9738 111.061 91.9738C111.01 91.9738 110.96 91.9859 110.914 92.0093L109.06 93.0619C108.984 93.1075 108.988 93.1835 109.06 93.2291L111.18 94.4527C111.225 94.4778 111.276 94.4916 111.328 94.493C111.379 94.4943 111.43 94.4831 111.477 94.4603H111.496ZM99.5143 94.3843L101.35 93.3241C101.426 93.2785 101.422 93.2025 101.35 93.1569L99.2293 91.9333C99.184 91.9099 99.1339 91.8978 99.083 91.8978C99.0321 91.8978 98.9819 91.9099 98.9367 91.9333L97.1051 92.9897C97.0253 93.0353 97.0291 93.1113 97.1051 93.1607L99.2255 94.3843C99.2679 94.4032 99.3139 94.413 99.3604 94.413C99.4069 94.413 99.4528 94.4032 99.4953 94.3843H99.5143ZM93.4343 104.884L98.7923 101.787C98.8683 101.745 98.8645 101.669 98.7923 101.619L96.6719 100.396C96.6266 100.373 96.5765 100.36 96.5256 100.36C96.4747 100.36 96.4245 100.373 96.3793 100.396L91.0213 103.489C90.9415 103.535 90.9491 103.611 91.0213 103.66L93.1417 104.884C93.1864 104.904 93.2353 104.915 93.2846 104.914C93.3339 104.913 93.3824 104.902 93.4267 104.88L93.4343 104.884ZM108.513 95.9993C108.558 96.0226 108.608 96.0348 108.659 96.0348C108.71 96.0348 108.76 96.0226 108.805 95.9993L110.637 94.9429C110.717 94.8973 110.709 94.8213 110.637 94.7719L108.52 93.5483C108.475 93.5258 108.425 93.5141 108.374 93.5141C108.323 93.5141 108.273 93.5258 108.228 93.5483L106.373 94.6199C106.297 94.6655 106.301 94.7415 106.373 94.7871L108.513 95.9993ZM105.777 94.2589L107.608 93.1987C107.688 93.1569 107.684 93.0809 107.608 93.0315L105.492 91.8079C105.446 91.7845 105.396 91.7724 105.345 91.7724C105.294 91.7724 105.244 91.7845 105.199 91.8079L103.36 92.8605C103.284 92.9061 103.288 92.9821 103.36 93.0277L105.48 94.2513C105.524 94.2751 105.574 94.2883 105.624 94.2896C105.674 94.2909 105.724 94.2804 105.769 94.2589H105.777ZM90.7515 106.419L92.5869 105.359C92.6629 105.313 92.6591 105.237 92.5869 105.191L90.4399 103.979C90.3946 103.956 90.3445 103.944 90.2936 103.944C90.2427 103.944 90.1925 103.956 90.1473 103.979L88.3157 105.039C88.2359 105.081 88.2435 105.157 88.3157 105.207L90.4323 106.43C90.4802 106.456 90.5337 106.469 90.5881 106.469C90.6424 106.469 90.6959 106.456 90.7439 106.43L90.7515 106.419ZM102.6 99.4193C102.645 99.4426 102.695 99.4548 102.746 99.4548C102.797 99.4548 102.847 99.4426 102.892 99.4193L104.724 98.3591C104.804 98.3173 104.8 98.2413 104.724 98.1919L102.604 96.9683C102.558 96.9449 102.508 96.9328 102.457 96.9328C102.406 96.9328 102.356 96.9449 102.311 96.9683L100.449 98.0399C100.373 98.0855 100.377 98.1615 100.449 98.2071L102.6 99.4193ZM77.3679 114.163L79.1995 113.107C79.2793 113.061 79.2717 112.985 79.1995 112.936L77.0525 111.72C77.0072 111.697 76.9571 111.684 76.9062 111.684C76.8553 111.684 76.8051 111.697 76.7599 111.72L74.9245 112.776C74.8485 112.822 74.8523 112.898 74.9245 112.947L77.0449 114.171C77.0924 114.194 77.1449 114.205 77.1978 114.204C77.2507 114.203 77.3025 114.189 77.3489 114.163H77.3679ZM80.0279 112.617L81.8595 111.56C81.9393 111.515 81.9355 111.439 81.8595 111.389L79.7391 110.166C79.6936 110.143 79.6435 110.132 79.5928 110.132C79.542 110.132 79.492 110.143 79.4465 110.166L77.6111 111.226C77.5351 111.271 77.5389 111.347 77.6111 111.393L79.7315 112.617C79.7772 112.641 79.828 112.653 79.8797 112.653C79.9313 112.653 79.9821 112.641 80.0279 112.617ZM74.6699 115.71L76.5015 114.653C76.5813 114.608 76.5737 114.532 76.5015 114.482L74.3811 113.259C74.3356 113.236 74.2855 113.225 74.2348 113.225C74.184 113.225 74.134 113.236 74.0885 113.259L72.2569 114.315C72.1809 114.361 72.1847 114.437 72.2569 114.486L74.3773 115.71C74.4228 115.732 74.4728 115.744 74.5236 115.744C74.5743 115.744 74.6244 115.732 74.6699 115.71ZM85.3859 109.523L87.2213 108.463C87.2973 108.418 87.2935 108.345 87.2213 108.296L85.1009 107.072C85.0556 107.049 85.0055 107.037 84.9546 107.037C84.9037 107.037 84.8535 107.049 84.8083 107.072L82.9767 108.133C82.8969 108.178 82.9007 108.25 82.9767 108.3L85.0971 109.523C85.1418 109.546 85.1913 109.558 85.2415 109.558C85.2916 109.558 85.3411 109.546 85.3859 109.523ZM82.7259 111.07L84.5575 110.01C84.6373 109.968 84.6335 109.892 84.5575 109.843L82.4371 108.619C82.3918 108.596 82.3417 108.584 82.2908 108.584C82.2399 108.584 82.1897 108.596 82.1445 108.619L80.3091 109.679C80.2331 109.725 80.2369 109.801 80.3091 109.846L82.4295 111.07C82.4727 111.091 82.5201 111.102 82.5682 111.102C82.6162 111.102 82.6636 111.091 82.7069 111.07H82.7259ZM88.0839 107.977L89.9193 106.917C89.9953 106.871 89.9915 106.795 89.9193 106.749L87.7799 105.526C87.7346 105.503 87.6845 105.49 87.6336 105.49C87.5827 105.49 87.5325 105.503 87.4873 105.526L85.6557 106.586C85.5759 106.628 85.5797 106.704 85.6557 106.753L87.7761 107.977C87.8208 108 87.8703 108.011 87.9205 108.011C87.9706 108.011 88.0201 108 88.0649 107.977H88.0839ZM100.32 85.0895C100.365 85.1128 100.415 85.125 100.466 85.125C100.517 85.125 100.567 85.1128 100.612 85.0895L102.448 84.0293C102.524 83.9837 102.52 83.9115 102.448 83.8621L101.882 83.5353C101.836 83.5119 101.786 83.4998 101.735 83.4998C101.684 83.4998 101.634 83.5119 101.589 83.5353L99.7575 84.5917C99.6815 84.6373 99.6853 84.7133 99.7575 84.7627L100.32 85.0895ZM87.1377 93.6015C87.1832 93.6239 87.2332 93.6356 87.284 93.6356C87.3347 93.6356 87.3848 93.6239 87.4303 93.6015L89.2619 92.5451C89.3417 92.4995 89.3379 92.4235 89.2619 92.3741L87.1453 91.1505C87.1 91.1271 87.0499 91.115 86.999 91.115C86.9481 91.115 86.8979 91.1271 86.8527 91.1505L85.0173 92.2069C84.9413 92.2525 84.9451 92.3285 85.0173 92.3779L87.1377 93.6015ZM92.4957 90.5045C92.5409 90.5278 92.5911 90.54 92.642 90.54C92.6929 90.54 92.743 90.5278 92.7883 90.5045L94.6199 89.4519C94.6997 89.4101 94.6959 89.3341 94.6199 89.2847L92.4995 88.0611C92.454 88.0386 92.4039 88.0269 92.3532 88.0269C92.3024 88.0269 92.2524 88.0386 92.2069 88.0611L90.3715 89.1213C90.2955 89.1669 90.2993 89.2429 90.3715 89.2885L92.4957 90.5045ZM83.8659 95.4901C83.9114 95.5125 83.9614 95.5242 84.0122 95.5242C84.0629 95.5242 84.113 95.5125 84.1585 95.4901L85.9901 94.4337C86.0699 94.3881 86.0623 94.3121 85.9901 94.2627L83.8735 93.0391C83.828 93.0166 83.7779 93.0049 83.7272 93.0049C83.6764 93.0049 83.6264 93.0166 83.5809 93.0391L81.7455 94.0955C81.6695 94.1411 81.6733 94.2171 81.7455 94.2665L83.8659 95.4901ZM89.8167 92.0701C89.8622 92.0925 89.9122 92.1042 89.963 92.1042C90.0137 92.1042 90.0638 92.0925 90.1093 92.0701L91.9409 91.0137C92.0207 90.9681 92.0169 90.8921 91.9409 90.8427L89.8205 89.6191C89.775 89.5966 89.7249 89.5849 89.6742 89.5849C89.6234 89.5849 89.5734 89.5966 89.5279 89.6191L87.6925 90.6793C87.6165 90.7249 87.6203 90.8009 87.6925 90.8465L89.8167 92.0701ZM78.5079 98.5985C78.5527 98.6209 78.6021 98.6325 78.6523 98.6325C78.7024 98.6325 78.7518 98.6209 78.7967 98.5985L80.6321 97.5383C80.7081 97.4927 80.7043 97.4167 80.6321 97.3711L78.5041 96.1399C78.4586 96.1174 78.4085 96.1057 78.3578 96.1057C78.307 96.1057 78.257 96.1174 78.2115 96.1399L76.3799 97.1887C76.3001 97.2343 76.3077 97.3103 76.3799 97.3597L78.5079 98.5985ZM81.1679 97.0519C81.2131 97.0752 81.2633 97.0874 81.3142 97.0874C81.3651 97.0874 81.4152 97.0752 81.4605 97.0519L83.2921 95.9955C83.3719 95.9499 83.3643 95.8739 83.2921 95.8245L81.1717 94.6009C81.1268 94.5785 81.0774 94.5668 81.0273 94.5668C80.9771 94.5668 80.9277 94.5785 80.8829 94.6009L79.0475 95.6573C78.9715 95.7029 78.9753 95.7789 79.0475 95.8283L81.1679 97.0519ZM94.9429 88.1979C94.9881 88.2212 95.0383 88.2334 95.0892 88.2334C95.1401 88.2334 95.1902 88.2212 95.2355 88.1979L97.0671 87.1377C97.1469 87.0959 97.1431 87.0199 97.0671 86.9705L96.5199 86.6399C96.4744 86.6174 96.4243 86.6057 96.3736 86.6057C96.3228 86.6057 96.2728 86.6174 96.2273 86.6399L94.3957 87.6963C94.3159 87.7419 94.3197 87.8179 94.3957 87.8673L94.9429 88.1979ZM102.98 83.5581C103.025 83.5814 103.075 83.5936 103.126 83.5936C103.177 83.5936 103.227 83.5814 103.272 83.5581L105.108 82.4979C105.184 82.4523 105.18 82.3763 105.108 82.3307L104.545 82.0039C104.5 81.9814 104.45 81.9697 104.399 81.9697C104.348 81.9697 104.298 81.9814 104.253 82.0039L102.417 83.0641C102.341 83.1097 102.345 83.1857 102.417 83.2313L102.98 83.5581ZM107.433 86.1307C107.479 86.1531 107.529 86.1648 107.58 86.1648C107.631 86.1648 107.681 86.1531 107.726 86.1307L109.561 85.0743C109.637 85.0287 109.634 84.9527 109.561 84.9033L107.441 83.6797C107.396 83.6572 107.346 83.6455 107.295 83.6455C107.244 83.6455 107.194 83.6572 107.148 83.6797L105.328 84.7399C105.248 84.7855 105.252 84.8615 105.328 84.9109L107.433 86.1307ZM114.133 92.9289L115.964 91.8687C116.044 91.8231 116.04 91.7509 115.964 91.7015L113.844 90.4779C113.799 90.4545 113.749 90.4424 113.698 90.4424C113.647 90.4424 113.597 90.4545 113.551 90.4779L111.72 91.5153C111.644 91.5609 111.648 91.6331 111.72 91.6825L113.84 92.9061C113.888 92.9345 113.942 92.9502 113.997 92.9516C114.052 92.9529 114.107 92.9398 114.156 92.9137L114.133 92.9289ZM97.6599 86.6399C97.7051 86.6632 97.7553 86.6754 97.8062 86.6754C97.8571 86.6754 97.9072 86.6632 97.9525 86.6399L99.7841 85.5797C99.8639 85.5379 99.8601 85.4619 99.7841 85.4125L99.2179 85.0857C99.1724 85.0632 99.1223 85.0515 99.0716 85.0515C99.0208 85.0515 98.9708 85.0632 98.9253 85.0857L97.0937 86.1421C97.0139 86.1877 97.0215 86.2637 97.0937 86.3131L97.6599 86.6399ZM75.8289 100.13C75.8741 100.153 75.9243 100.165 75.9752 100.165C76.0261 100.165 76.0762 100.153 76.1215 100.13L77.9569 99.0697C78.0329 99.0241 78.0291 98.9481 77.9569 98.9025L75.8365 97.6789C75.7912 97.6555 75.7411 97.6434 75.6902 97.6434C75.6393 97.6434 75.5891 97.6555 75.5439 97.6789L73.7199 98.7391C73.6401 98.7809 73.6477 98.8569 73.7199 98.9063L75.8289 100.13Z" fill="#455A64"/>
<path d="M87.7113 116.215L105.803 105.769C106.109 105.613 106.448 105.532 106.791 105.532C107.134 105.532 107.473 105.613 107.779 105.769L118.153 111.758C118.7 112.073 118.7 112.582 118.153 112.898L100.061 123.344C99.7551 123.499 99.4166 123.58 99.0733 123.58C98.7299 123.58 98.3914 123.499 98.0853 123.344L87.7113 117.355C87.1679 117.04 87.1679 116.527 87.7113 116.215Z" fill="#263238"/>
<path d="M120.984 65.9826H120.961L117.872 64.2042C117.693 64.1244 117.431 64.2042 117.112 64.4398C114.239 66.6362 110.375 67.3202 107.232 66.317C107.029 66.1272 106.836 65.9268 106.654 65.7166L106.597 65.652C106.507 65.547 106.399 65.4583 106.278 65.3898L106.225 65.3594L103.132 63.5848C102.778 63.4176 102.459 63.5848 102.246 64.1092C99.2596 71.5306 92.8946 79.0508 88.65 80.9318C88.329 81.0758 88.0437 81.2886 87.814 81.555C87.5089 81.8863 87.3406 82.3207 87.3428 82.771L87.9546 99.434C87.9546 104.249 89.9876 109.333 94.1334 111.807L97.333 113.654L97.39 113.684C99.1199 114.655 101.076 115.152 103.06 115.124C103.504 115.124 103.956 115.105 104.424 115.06C105.333 114.91 106.176 114.489 106.841 113.851C116.116 104.271 120.627 91.3058 120.627 84.1314L121.22 66.6818C121.243 66.3056 121.151 66.0738 120.984 65.9826Z" fill="#CFD8DC"/>
<path d="M121.219 66.6825L120.608 84.1131C120.608 91.2875 116.097 104.253 106.821 113.833C106.156 114.471 105.314 114.892 104.404 115.041C103.937 115.087 103.485 115.106 103.04 115.106C101.057 115.134 99.1006 114.637 97.3707 113.666L97.3137 113.635L97.2035 113.567C93.0577 111.093 91.0247 106.009 91.0247 101.194L90.4395 84.5311C90.4373 84.0808 90.6056 83.6463 90.9107 83.3151C91.1403 83.0486 91.4257 82.8359 91.7467 82.6919C95.9913 80.7919 102.356 73.2907 105.343 65.8693C105.556 65.3449 105.879 65.1739 106.232 65.3411L106.285 65.3715C106.406 65.44 106.514 65.5286 106.605 65.6337L106.662 65.6983C109.831 69.3881 116.063 69.3843 120.224 66.1999C120.539 65.9605 120.801 65.8845 120.984 65.9643H121.007C121.151 66.0745 121.242 66.3063 121.219 66.6825Z" fill="#CFD8DC"/>
<path opacity="0.4" d="M120.966 65.9603C120.787 65.8805 120.525 65.9603 120.206 66.1959C116.288 69.1941 110.531 69.3727 107.229 66.2947C110.386 67.3017 114.243 66.6177 117.109 64.4175C117.424 64.1781 117.686 64.1021 117.869 64.1819L120.966 65.9603Z" fill="white"/>
<path opacity="0.4" d="M106.214 65.3369C105.86 65.1697 105.537 65.3369 105.325 65.8651C102.338 73.2865 95.9728 80.8067 91.7282 82.6877C91.4072 82.8318 91.1218 83.0445 90.8922 83.3109C90.8124 83.4018 90.7412 83.4997 90.6794 83.6035L87.5938 81.8214C87.6553 81.7194 87.7252 81.6228 87.8028 81.5325C87.8454 81.4829 87.8911 81.4359 87.9396 81.3919L87.9928 81.3387L88.046 81.2893C88.2215 81.1331 88.4202 81.0049 88.635 80.9093C92.8796 79.0283 99.2446 71.5081 102.231 64.0867C102.444 63.5623 102.763 63.3951 103.117 63.5623L106.214 65.3369Z" fill="white"/>
<path d="M87.9431 81.3844C87.9589 81.366 87.9768 81.3494 87.9963 81.335L87.9431 81.3882C87.9431 81.3882 87.9393 81.3844 87.9431 81.3844Z" fill="#CFD8DC"/>
<path opacity="0.15" d="M87.9966 81.3193L87.9434 81.3725C87.959 81.3528 87.9768 81.335 87.9966 81.3193Z" fill="black"/>
<path opacity="0.15" d="M97.3786 113.661L97.3216 113.635L94.122 111.784C89.9762 109.31 87.9432 104.226 87.9432 99.4115L87.3314 82.7485C87.3248 82.4202 87.416 82.0975 87.5936 81.8213L90.6792 83.6035C90.5043 83.8793 90.4145 84.2004 90.4208 84.5269L91.0326 101.19C91.0326 106.004 93.0656 111.07 97.2114 113.563L97.3216 113.631L97.3786 113.661Z" fill="black"/>
<path d="M108.299 98.3321L103.359 101.182L104.119 92.2483C103.53 91.9367 103.15 91.1691 103.15 90.0633C103.15 88.0987 104.347 85.8111 105.81 84.9599C107.273 84.1087 108.47 85.0131 108.47 86.9777C108.441 88.1435 108.108 89.2816 107.505 90.2799L108.299 98.3321Z" fill="#455A64"/>
<path d="M108.293 98.332L103.82 95.748L103.356 101.182L108.293 98.332Z" fill="#37474F"/>
<path d="M105.826 84.9599C104.857 85.5185 104.017 86.6889 103.546 87.9809L107.54 90.2799C108.143 89.2816 108.475 88.1435 108.505 86.9777C108.494 85.0131 107.3 84.1087 105.826 84.9599Z" fill="#37474F"/>
<path d="M44.0498 150.229V151.711C44.0498 153.459 45.1898 155.203 47.5002 156.537C50.9734 158.54 56.073 159.03 60.348 158.008L64.3152 160.288L67.3552 159.596L69.4338 160.801L69.5478 163.312L70.6878 163.962L73.5036 164.209L75.5252 165.349V166.767L78.0674 168.23H84.5274L86.8416 166.896V165.399L66.1924 154.975C67.0684 154.117 67.5801 152.955 67.6212 151.73V150.21C67.3096 148.758 66.1012 148.01 64.1746 146.896C59.5728 144.236 52.1172 144.236 47.5154 146.896C45.433 148.112 44.2588 148.667 44.0498 150.229ZM50.373 148.492C51.1043 148.121 51.9128 147.928 52.7328 147.928C53.5528 147.928 54.3613 148.121 55.0926 148.492C56.396 149.252 56.396 150.465 55.0926 151.217C54.3613 151.588 53.5528 151.781 52.7328 151.781C51.9128 151.781 51.1043 151.588 50.373 151.217C49.0696 150.48 49.0696 149.245 50.373 148.492Z" fill="#CFD8DC"/>
<path opacity="0.1" d="M44.0498 150.229V151.711C44.0498 153.459 45.1898 155.203 47.5002 156.537C50.9734 158.54 56.073 159.03 60.348 158.008L64.3152 160.288L67.3552 159.596L69.4338 160.801L69.5478 163.312L70.6878 163.962L73.5036 164.209L75.5252 165.349V166.767L78.0674 168.23H84.5274L86.8416 166.896V165.399L66.1924 154.975C67.0684 154.117 67.5801 152.955 67.6212 151.73V150.21C67.3096 148.758 66.1012 148.01 64.1746 146.896C59.5728 144.236 52.1172 144.236 47.5154 146.896C45.433 148.112 44.2588 148.667 44.0498 150.229ZM50.373 148.492C51.1043 148.121 51.9128 147.928 52.7328 147.928C53.5528 147.928 54.3613 148.121 55.0926 148.492C56.396 149.252 56.396 150.465 55.0926 151.217C54.3613 151.588 53.5528 151.781 52.7328 151.781C51.9128 151.781 51.1043 151.588 50.373 151.217C49.0696 150.48 49.0696 149.245 50.373 148.492Z" fill="black"/>
<path d="M47.5004 155.04C50.9736 157.047 56.0732 157.537 60.3482 156.511L64.3154 158.791L67.3554 158.103L69.434 159.304L69.548 161.819L70.688 162.465L73.5038 162.712L75.7002 163.936L75.5254 165.258L78.0676 166.725H84.5276L86.8418 165.391L66.1926 153.467C68.6246 150.887 67.9558 147.592 64.1748 145.411C59.573 142.751 52.1174 142.751 47.5156 145.411C42.9138 148.071 42.8986 152.38 47.5004 155.04ZM50.3732 146.996C51.1045 146.625 51.913 146.431 52.733 146.431C53.553 146.431 54.3615 146.625 55.0928 146.996C56.3962 147.756 56.3962 148.968 55.0928 149.72C54.3615 150.091 53.553 150.284 52.733 150.284C51.913 150.284 51.1045 150.091 50.3732 149.72C49.0698 148.96 49.0698 147.744 50.3732 146.992V146.996Z" fill="#CFD8DC"/>
<path opacity="0.3" d="M55.8301 155.724C52.9079 155.724 50.1833 155.078 48.1541 153.907C46.3757 152.881 45.3535 151.54 45.3535 150.229C45.3535 148.918 46.3757 147.569 48.1541 146.547C50.1833 145.376 52.9079 144.73 55.8301 144.73C58.7523 144.73 61.4769 145.376 63.5061 146.547C65.2845 147.577 66.3067 148.914 66.3067 150.229C66.3067 151.544 65.2845 152.889 63.5061 153.907C61.4769 155.078 58.7523 155.724 55.8301 155.724ZM55.8301 145.255C52.9991 145.255 50.3657 145.874 48.4125 146.999C46.8013 147.93 45.8779 149.108 45.8779 150.229C45.8779 151.35 46.8013 152.509 48.4125 153.455C50.3657 154.595 52.9991 155.203 55.8301 155.203C58.6611 155.203 61.2945 154.58 63.2477 153.455C64.8589 152.524 65.7823 151.346 65.7823 150.229C65.7823 149.112 64.8589 147.949 63.2477 146.999C61.2945 145.874 58.6611 145.255 55.8301 145.255Z" fill="black"/>
<path opacity="0.1" d="M51.5889 156.56V158.08C54.4771 158.708 57.4687 158.688 60.3479 158.02V156.522C57.4667 157.181 54.4756 157.194 51.5889 156.56Z" fill="black"/>
<path opacity="0.1" d="M64.3154 158.798V160.299L67.363 159.608V158.11L64.3154 158.798Z" fill="black"/>
<path opacity="0.1" d="M69.4414 159.312V160.813L69.5554 163.324V161.827L69.4414 159.312Z" fill="black"/>
<path opacity="0.1" d="M70.6768 162.473V163.974L73.4926 164.221V162.72L70.6768 162.473Z" fill="black"/>
<path opacity="0.1" d="M84.5119 166.732H78.0557V168.233H84.5119V166.732Z" fill="black"/>
<path opacity="0.15" d="M86.8259 165.396V166.897L84.5117 168.23V166.733L85.5225 166.148V166.794L86.0849 166.471V165.817L86.8259 165.396Z" fill="black"/>
<path d="M86.0858 165.817L85.5234 166.148V166.794L86.0858 166.471V165.817Z" fill="#CFD8DC"/>
<path opacity="0.15" d="M86.0856 165.817V166.47L64.9082 154.242L65.4668 153.915L86.0856 165.817Z" fill="black"/>
<path opacity="0.15" d="M65.4668 153.915V154.569L64.9082 154.242L65.4668 153.915Z" fill="black"/>
<path d="M157.522 109.653C157.791 99.7731 156.997 97.3829 154.36 95.5703L153.342 101.305C153.342 101.305 154.542 108.065 154.413 110.314C154.299 112.294 154.105 114.768 153.653 116.364C153.567 116.647 153.38 116.889 153.129 117.044C152.581 117.431 152.094 117.895 151.681 118.424C151.301 118.838 150.951 118.94 151.001 119.073C151.078 119.218 151.207 119.329 151.362 119.383C151.517 119.437 151.686 119.431 151.837 119.366C152.174 119.235 152.493 119.061 152.787 118.849C152.556 119.457 152.227 120.023 151.814 120.525C150.872 121.665 150.83 122.387 152.73 122.406C153.923 122.406 154.873 121.68 155.77 119.058C156.118 118.098 156.398 117.113 156.606 116.113C157.043 113.518 157.48 111.245 157.522 109.653Z" fill="#B16668"/>
<path d="M152.145 94.818C152.954 94.6746 153.789 94.7978 154.523 95.1692C155.257 95.5406 155.85 96.1401 156.214 96.8776C157.32 98.8498 157.59 102.247 157.734 105.618C157.734 105.618 155.542 107.453 152.912 106.552L152.145 94.818Z" fill="#CFD8DC"/>
<path opacity="0.7" d="M152.145 94.818C152.954 94.6746 153.789 94.7978 154.523 95.1692C155.257 95.5406 155.85 96.1401 156.214 96.8776C157.32 98.8498 157.59 102.247 157.734 105.618C157.734 105.618 155.542 107.453 152.912 106.552L152.145 94.818Z" fill="black"/>
<path d="M155.846 149.257C156.043 149.333 156.093 149.713 156.123 150.469C156.146 151.039 156.271 152.039 155.599 152.24C154.926 152.441 153.946 152.335 153.516 151.795C152.997 151.073 152.441 150.376 151.852 149.709C151.191 148.999 150.472 148.33 150.203 147.33C149.963 146.43 150.165 146.038 150.78 145.776C151.628 145.396 152.958 146.593 153.623 146.779C154.193 146.939 155.644 149.181 155.846 149.257Z" fill="#263238"/>
<path d="M155.846 148.554V149.485C155.496 149.707 155.093 149.831 154.68 149.841C154.266 149.852 153.857 149.75 153.497 149.546C153.455 149.459 153.254 148.22 153.254 148.22L155.846 148.554Z" fill="#B16668"/>
<path d="M148.322 154.607C148.485 155.107 148.622 155.614 148.732 156.127C148.846 156.69 149.01 157.647 148.816 158.05C148.622 158.453 147.851 158.746 146.661 158.738C145.901 158.738 144.693 159.255 143.872 159.715C143.051 160.174 141.258 160.376 140.357 160.269C139.301 160.144 138.206 159.532 138.035 159.095C137.864 158.658 138.088 158.202 140.585 157.138C140.608 157.138 144.051 155.998 145.255 154.68L148.322 154.607Z" fill="#263238"/>
<path d="M148.322 153.604V154.687C148.322 155.067 147.862 155.668 146.658 155.626C145.814 155.596 145.221 155.368 145.255 154.672V153.665L148.322 153.604Z" fill="#B16668"/>
<path d="M156.449 136.231C156.243 134.586 155.875 132.966 155.351 131.393C155.351 131.393 155.682 127.213 155.841 123.265C156.012 118.99 155.841 113.621 155.914 112.553C155.914 112.553 142.123 109.764 141.876 114.704C141.629 119.644 142.424 132.218 142.587 134.388C142.75 136.558 143.123 138.48 143.571 141.988C144.02 145.495 145.255 153.658 145.255 153.658C145.731 153.9 146.261 154.021 146.795 154.011C147.33 154 147.854 153.858 148.321 153.597C148.321 153.597 149.294 143.717 149.191 141.213C149.113 139.358 148.793 137.521 148.241 135.748C148.241 135.748 148.504 131.675 148.735 128.148C148.967 124.622 149.21 122.9 149.264 121.361L149.56 121.213C149.56 121.213 149.864 127.327 150.027 129.497C150.191 131.667 150.533 133.746 151.167 137.777C151.715 141.277 153.337 148.676 153.337 148.676C154.91 149.527 155.853 148.562 155.853 148.562C155.853 148.562 156.871 139.267 156.449 136.231Z" fill="#37474F"/>
<path d="M149.264 121.354C149.264 121.354 152.608 119.701 154.28 118.219C154.28 118.219 152.725 120.408 150.685 121.38C150.685 121.38 149.959 128.98 149.963 128.821L149.541 121.342L149.264 121.354Z" fill="#263238"/>
<path d="M146.285 93.2562L147.102 97.7478L151.161 97.4476L150.309 92.3594L146.285 93.2562Z" fill="#B16668"/>
<path d="M155.443 97.1209C155.044 95.9011 153.494 94.5711 151.943 94.8409C149.642 95.2381 147.374 95.811 145.16 96.5547C143.743 97.0601 142.447 98.2875 142.329 102.958C142.329 102.958 141.854 113.841 141.847 115.946C144.809 117.108 148.036 117.427 151.168 116.866C155.432 115.935 155.948 114.164 155.948 114.164C155.948 114.164 156.002 106.336 155.872 102.958C155.758 100.085 155.72 97.9607 155.443 97.1209Z" fill="#CFD8DC"/>
<g opacity="0.15">
<path d="M155.443 97.1209C155.044 95.9011 153.494 94.5711 151.943 94.8409C149.642 95.2381 147.374 95.811 145.16 96.5547C143.743 97.0601 142.447 98.2875 142.329 102.958C142.329 102.958 141.854 113.841 141.847 115.946C144.809 117.108 148.036 117.427 151.168 116.866C155.432 115.935 155.948 114.164 155.948 114.164C155.948 114.164 156.002 106.336 155.872 102.958C155.758 100.085 155.72 97.9607 155.443 97.1209Z" fill="black"/>
</g>
<path d="M143.157 87.7803C143.157 87.7803 142.127 89.4219 142.253 89.5777C142.378 89.7335 143.165 89.8589 143.165 89.8589L143.157 87.7803Z" fill="#9A4A4D"/>
<path d="M146.011 83.255C143.868 83.7566 143.268 84.718 143.142 88.1494C143.009 91.729 143.401 92.8462 143.88 93.3174C144.206 93.6366 145.97 93.6556 146.855 93.3896C147.961 93.059 150.457 92.109 151.594 90.285C152.931 88.1342 153.231 85.2576 151.723 84.1138C149.595 82.5026 146.885 83.0498 146.011 83.255Z" fill="#B16668"/>
<path d="M143.165 84.1477C143.657 84.8648 144.352 85.4191 145.16 85.7399C145.571 86.2073 145.346 88.0199 146.068 88.3239C146.068 88.3239 146.38 86.9939 147.497 87.1383C148.614 87.2827 148.808 88.7039 148.12 89.5893C147.433 90.4747 146.768 90.1555 146.768 90.1555C146.768 90.1555 146.844 92.0555 147.706 93.0967C147.706 93.0967 148.664 93.3855 150.412 92.9713C151.483 92.7167 152.977 91.3373 153.585 89.8971C154.873 86.8571 154.903 84.1325 152.962 83.3611C152.722 81.9741 151.613 81.3775 150.359 81.1191C147.657 80.5605 145.916 82.2591 143.838 82.0995C142.648 82.0159 142.428 82.8823 143.165 84.1477Z" fill="#263238"/>
<path d="M153.003 83.8244L154.276 83.0378C154.235 82.9345 154.172 82.8414 154.091 82.7651C154.011 82.6888 153.914 82.6312 153.809 82.5962C153.703 82.5613 153.591 82.5499 153.481 82.5628C153.371 82.5757 153.265 82.6127 153.17 82.6711C153.076 82.7295 152.995 82.8079 152.934 82.9008C152.873 82.9937 152.833 83.0988 152.817 83.2088C152.801 83.3187 152.81 83.4308 152.842 83.5372C152.874 83.6435 152.929 83.7416 153.003 83.8244Z" fill="#263238"/>
<path d="M127.999 104.642C128.664 104.938 136.526 110.744 137.75 110.068C138.974 109.392 145.263 102.046 145.263 102.046C145.794 101.226 146.077 100.269 146.077 99.2911C146.077 98.3135 145.794 97.3568 145.263 96.5361C145.263 96.5361 143.249 96.9161 142.192 98.5045C141.136 100.093 136.583 105.812 136.583 105.812C135.459 105.25 134.336 104.68 133.217 104.102C132.297 103.623 131.374 103.148 130.473 102.635C130.22 102.518 129.981 102.371 129.762 102.198C129.318 101.757 129.382 100.678 129.405 100.116C129.405 99.8459 129.405 99.5761 129.443 99.3063C129.481 98.9757 129.546 98.1663 128.949 98.4247C128.836 98.4786 128.738 98.5595 128.664 98.6603C128.573 98.784 128.501 98.9212 128.451 99.0669C128.341 99.4165 128.375 99.8003 128.273 100.154C128.26 100.206 128.236 100.254 128.201 100.294C128.148 100.336 128.081 100.356 128.014 100.351C127.148 100.325 126.327 99.1087 125.928 98.4513C125.79 98.1379 125.561 97.8731 125.271 97.6913C124.8 97.4671 124.23 97.7863 123.922 98.2119C123.551 98.7714 123.4 99.4478 123.496 100.112C123.576 101.021 123.981 101.871 124.636 102.506C125.626 103.406 126.764 104.128 127.999 104.642Z" fill="#B16668"/>
<path d="M145.92 96.2998C145.053 96.3986 143.613 96.4632 142.199 98.063C140.535 99.9402 138.365 102.98 138.365 102.98C138.587 103.879 139.063 104.695 139.737 105.33C140.412 105.965 141.255 106.392 142.165 106.56C142.165 106.56 145.141 103.52 145.965 101.833C146.79 100.145 146.927 97.4322 145.92 96.2998Z" fill="#CFD8DC"/>
<path opacity="0.7" d="M145.92 96.2998C145.053 96.3986 143.613 96.4632 142.199 98.063C140.535 99.9402 138.365 102.98 138.365 102.98C138.587 103.879 139.063 104.695 139.737 105.33C140.412 105.965 141.255 106.392 142.165 106.56C142.165 106.56 145.141 103.52 145.965 101.833C146.79 100.145 146.927 97.4322 145.92 96.2998Z" fill="black"/>
</svg>
