<svg xmlns="http://www.w3.org/2000/svg" fill="none" viewBox="0 0 400 400" id="Problem-Solving--Streamline-Manila.svg" height="400" width="400"><desc>Problem Solving Streamline Illustration: https://streamlinehq.com</desc><g id="problem-solving--work-problem-solving-maze"><g id="Group 8"><path id="Vector" fill="#3d9cfb" d="M128.0282 80.002c2.54 3.9 5.28 6.62 7.22 4.86 1.94 -1.76 -2.14 -6 -4.48 -7.6 -1.36 -0.86 -5.18 -1.26 -2.74 2.74Z" stroke-width="1"></path><path id="Vector_2" fill="#3d9cfb" d="M79.2484 77.1822c-13.62 10.22 -12 16.8 2.54 2.74 2.5 -2.4 0.6 -5.08 -2.54 -2.74Z" stroke-width="1"></path><path id="Vector_3" fill="#3d9cfb" d="M91.9484 75.822c2.14 1.56 2 4.4802 2.14 8.9602h21.06c0.2 -4.48 -0.18 -7.6002 2.16 -8.9602 4.8704 -2.7476 8.6604 -7.0712 10.7462 -12.2594 2.086 -5.1884 2.3434 -10.9322 0.7302 -16.2864 -1.6132 -5.3542 -5.001 -9.9998 -9.606 -13.172 -4.605 -3.1724 -10.1528 -4.6826 -15.7304 -4.2822 -24.12 1.34 -33.86 30.04 -11.5 46Z" stroke-width="1"></path><path id="Vector_4" fill="#3d9cfb" d="M84.5284 195.422c16.2 -2.34 43.7 5.06 55.02 -7.02 5.66 -5.86 4.3 -32.4002 4.1 -43.3202 -0.4 -29.46 -10.16 -23.62 -32.2 -25.36 -2.34 -0.2 -2.72 -5.0798 -2.92 -10.1598 -0.4 -6.24 -8.98 -3.7002 -9.38 2.5398 -1.36 20 17.38 17.3602 29.66 17.5602 6 0.2 5.28 10.34 5.48 15.22 0.96 27.12 0.58 34.9198 -7.22 38.8198 -9.38 4.7 -32.78 -0.78 -46.44 2.74 -21.46 5.46 -17.56 37.4602 -17.18 55.2202 0.46 42.5 39.7 4.98 41.18 41.16 0.18 5.46 -6.26 60.1 4 59.52 0.6428 -0.02 1.275 -0.168 1.8598 -0.436 0.5846 -0.268 1.1102 -0.65 1.546 -1.122 0.4356 -0.474 0.7728 -1.028 0.9916 -1.632 0.2188 -0.606 0.3148 -1.248 0.2826 -1.89 -1.063 -16.834 -0.936 -33.724 0.38 -50.54 2 -22.62 -6.64 -31.02 -33.56 -31.6 -9.36 -0.2 -7.02 -20.68 -7.4 -31.6 -0.38 -10.92 -0.1 -26.34 11.8 -28.1Z" stroke-width="1"></path><path id="Vector_5" fill="#3d9cfb" d="M105.5884 20.6018c0.2 -1.99998 0.6 -10.1399 -2.14 -10.5399 -3.7 -0.78 -2.34 5.99988 -1.36 9.75988 0.58 1.94002 3.32 2.72002 3.5 0.78002Z" stroke-width="1"></path><path id="Vector_6" fill="#3d9cfb" d="M134.6684 24.002c-1.22 -2 -3.54 -0.84 -6 0.78s-4.34 3.52 -3.72 5.26c0.88 2.48 10.84 -4.34 9.72 -6.04Z" stroke-width="1"></path><path id="Vector_7" fill="#3d9cfb" d="M75.9484 22.7418c-3.32 0.98 0 4.88 3.12 6.84s4.64 0.8 3.32 -1.38c-1.32 -2.18 -3.92 -6.44 -6.44 -5.46Z" stroke-width="1"></path><path id="Vector_8" fill="#3d9cfb" d="M141.8882 64.702c-3.52 -0.78 -7.42 -2.94 -8.2 -1.18 -0.78 2.74 4 4 5.86 4.3 4.88 1.16 5.86 -2.34 2.34 -3.12Z" stroke-width="1"></path><path id="Vector_9" fill="#3d9cfb" d="M70.2884 47.722c4.28 0.38 2.34 -2.54 0.18 -3.52 -2.16 -0.98 -12 -5.26 -13.06 -2.54 -1.36 3.72 8.58 5.66 12.88 6.06Z" stroke-width="1"></path><path id="Vector_10" fill="#3d9cfb" d="M69.8884 65.862c2.54 -1.36 2.94 -4.68 -0.98 -3.7 -3.92 0.98 -6.62 2 -7.22 3.12 -1.74 2.92 5.66 1.94 8.2 0.58Z" stroke-width="1"></path><path id="Vector_11" fill="#3d9cfb" d="M147.1484 40.302c-5.1 1.68 -11.86 3.7 -11.12 6 1.04 3.3 10.54 -0.78 14.44 -1.76 3.9 -0.98 1.74 -5.88 -3.32 -4.24Z" stroke-width="1"></path></g><g id="Group 7"><path id="Vector_12" fill="#001434" d="M79.2484 270.342c-8.38 0.2 -24.38 3.32 -25.36 -6.44 -0.58 -6.24 -0.18 -19.32 -0.58 -26.54 -0.4 -4.88 -4.3 -2.72 -4.48 0.2 -0.5142 8.974 -0.3202 17.976 0.58 26.92 3.7 14.84 18 10 30.24 10.34 10.74 0.4 9.16 13.46 8.58 21.28 -0.38 5.26 -1.76 8.18 -6.82 8.58 -5.86 0.38 -31.42 2 -47.62 0.38 -15.88006 -1.44 -14.58006 -11.9 -14.00006 -96.18 35.18006 -0.9 35.08006 5.36 33.36006 -30.4402 25.18 -2.34 60.48 4 69.46 -4.3 3.52 -3.3 4.88 -12 2.34 -31.02 -0.58 -3.9 -4.54 -2.92 -4.48 -0.18 0.1 5.26 2.34 25.16 -0.98 27.7 -8.78 6.44 -45.06 0 -66.14 3.12 0.0574 -4.9466 -0.1362 -9.893 -0.58 -14.82 -0.4 -4 -4 -4 -4 -0.78 -0.5 20.88 3.12 40.58 -0.98 44.6602 -3.32 2.54 -12.88 1.18 -27.7 1.58 -0.40006 -27.3202 -0.40008 -56.7802 -1.38008 -78.4402 -0.38 -10.54 4.70008 -16.2 16.40008 -16.4 24.58 -0.18 50 -3.3 50.14 4.1 0.88 22.68 0.72 22 -5.66 22.84 -9.76 1.16 -12.68 0.58 -25.16 0.96 -5.66 0.2 -6.84 3.72 -1.56 4.3 9.36 1.18 26.72 -0.58 27.3 -0.58 12.12 -0.3 10.16 -12.5 10.16 -21.86 0 -10.34 -3.32 -14.62 -11.72 -15.02 -6.82 -0.4 -26.92 -0.2 -43.7 0.58 -18.00006 0.98 -21.26006 12 -20.88006 21.28 1.18 24.58 0.19996 59.12 0.77996 89.7402 0.98 66.6 -5.29996 92.22 18.5401 94.44 16.0718 0.872 32.182 0.758 48.24 -0.34 8.78 -0.78 11.3 -6.24 11.5 -11.5 0.5 -12.74 1.58 -28.36 -13.84 -28.16Z" stroke-width="1"></path><path id="Vector_13" fill="#001434" d="M143.0684 210.822c8.38 0.4 23.8 1.38 24 -6.24 0.2 -11.5 -0.58 -18.52 -3.5 -17.16 -3.36 1.68 0.12 10 -1.76 16.2 -2 7.4 -31.42 -5.48 -32.38 12.68 -0.3552 5.172 0.1038 10.37 1.36 15.4 0.58 3.32 5.26 4 4.3 -1.16 -2.2 -10.86 -3.16 -20.16 7.98 -19.72Z" stroke-width="1"></path><path id="Vector_14" fill="#001434" d="M94.0884 64.002c7.24 0.58 10.86 -16 12.1 -11.12 2 5.26 5.46 7.84 7.8 7.6 4.88 -0.5 7.22 -10 5.26 -11.52 -0.78 -0.78 -2.34 0 -2.52 0.98 -6.46 18 -6.42 -11.36 -14.64 -0.58 -2.54 3.52 -7.02 18 -10 6.64 -0.38 -0.98 -0.96 -1.38 -2 -0.78 -1.86 0.88 0.48 8.3 4 8.78Z" stroke-width="1"></path><path id="Vector_15" fill="#001434" d="M129.5886 108.982c7.82 -0.2 14.84 -0.58 23.82 -0.78 1.36 11.52 -2 32.58 -0.6 48 0.98 11.9 4.3 19.7002 16.4 20.4802 4.48 0.4 23.8 2 31.3994 0 4 -0.98 2.72 -5.1402 -1.7394 -4.4802 -9.28 0.9394 -18.6344 0.8724 -27.9 -0.1998 -20 -1.88 -12.2 -25.4 -12.7 -64 70.4594 -1.46 62.1594 3.4198 64.7794 30.8398 -10.514 0.8792 -21.084 0.8792 -31.5994 0 -4.5 -0.4 -4.88 -0.3998 -5.08 -5.4598 -0.2 -7.42 0.2 -13.2802 -2.14 -13.6602 -3.52 -0.4 -2.54 5.84 -2.54 14 0 6.84 1.56 8.9802 9.36 9.5602 10.7154 0.8804 21.4854 0.8804 32.1994 0 2.14 15.02 -2.14 22.94 3.12 23.02 5.66 0.1 2 -33.74 1.56 -41.16 -0.38 -12.88 -6.82 -20.1 -22.64 -21.28 -12.2794 -0.58 -62.4194 -2.9202 -77.4394 0.5998 -4.1 1.02 -3.14 4.72 1.74 4.52Z" stroke-width="1"></path><path id="Vector_16" fill="#001434" d="M127.2484 256.682c-3.48 -22.9 -38.18 -2.46 -40.78 -18.74 -1.36 -8.78 -0.5802 -13.64 -0.5802 -22 -0.2 -13.66 18.34 -7.42 23.22 -8.78 2.92 -0.78 2.54 -3.7 -0.78 -4 -5.3774 -0.642 -10.808 -0.708 -16.1998 -0.2 -10.92 0.4 -11.5 10.94 -10.92 21.86 0.58 10.34 -0.98 25.36 12.88 24.98 23.6 -0.78 29.2598 -2.74 29.4598 23.22 0 1.16 1.3602 1.56 2.7402 1.56 2.52 -0.14 1.94 -10.88 0.96 -17.9Z" stroke-width="1"></path><path id="Vector_17" fill="#001434" d="M115.1484 84.782h-21.06c-2 0.4 -0.78 13.08 4.1 12 2.54 0 -0.2 3.5 6.44 3.5 7.4 0 4.48 -3.3202 6.62 -3.7002 5.08 0.7 5.86 -12.3798 3.9 -11.7998Z" stroke-width="1"></path><path id="Vector_18" fill="#001434" d="M312.028 269.162c1.36 0.24 2.92 -0.38 2.92 -1.74 0 -4.88 -13.26 -4.88 -19.12 1.16 -4.1 4.3 -4 13.34 -0.38 14.44 0.298 0.096 0.616 0.108 0.922 0.034 0.304 -0.072 0.582 -0.228 0.802 -0.45 0.222 -0.22 0.378 -0.5 0.452 -0.804 0.072 -0.304 0.06 -0.622 -0.036 -0.92 -1.76 -8.78 7.38 -12.88 14.44 -11.72Z" stroke-width="1"></path><path id="Vector_19" fill="#001434" d="M346.368 281.262c8.96 -0.78 17.36 -2.54 21.84 -6.24 13.28 -10.92 4.68 -38.24 -16 -40.2 -39.4 -3.7 -45.06 49.56 -5.84 46.44Zm9.36 -40.96c13.86 2.14 18 24.18 9.56 31.02 -7.42 6 -29.26 7.4 -36 1.56 7.9 -8.88 20.3 -23.62 26.44 -32.58Z" stroke-width="1"></path><path id="Vector_20" fill="#001434" d="M385.188 246.542c-14 -40.2 -63.22 -14.84 -66.92 -43.9 -0.98 -7.42 -4 -12 -8.4 -3.52 -22.82 43.7 -79.58 7.72 -83.5 58.14 -1.28 16.56 -16.2 21.08 -10.54 43.32 -4.626 -1.644 -9.588 -2.112 -14.44 -1.36 -4.6798 -11.72 -9.3598 -20.5 -14.2398 -26.54 7.42 -5.26 7.22 -15.22 -1.56 -18.92 -12.68 -5.08 -18.14 -18.74 -2.34 -23.42 18.7398 -5.46 7.02 -10.92 9.76 -21.46 2.74 -7.62 36.2798 -4.34 27.8998 -15.6 -1 -1.36 -3.7 -4.3 -2.54 -7.42 0.78 -2.16 4 -5.74 16.78 -8 19.4 -3.44 27.12 -15.62 49.76 -17.18 44.9 -3.48 38.34 13.56 58 11.72 37.54 -3.58 37.28 12.7 41.36 7.6 0.78 -10.72 -29.12 -14.86 -42.14 -12 -2.54 0.54 -6.44 0.2 -8 -1.16 -21.46 -16.4 -60.28 -12.5 -81.16 0 -13.46 8.58 -51.52 7.6 -35.52 29.46 -16.38 4.48 -35.4998 3.5 -27.6998 25.16 -4.88 6.84 -18 4.3 -20.48 15.8 -4.3 20 30.24 19.72 15.02 32 -13.1 -15.72 -48 -4.38 -28.68 35.72 -23.42 7.8 -43.12 45.06 -16.78 62.42 2.72 7.22 4 10.34 6.44 16.6 2.44 6.26 8.58 9.16 5.66 1.56 39.4 7.4 80.9598 -15.04 87.7998 -40.4 4.48 8.78 8.78 20.3 12.28 26.14 2.54 4.5 8.6 7.42 5.28 0.4 -3.32 -7.02 -9.18 -20.3 -17.56 -37.66 14.82 8.58 40 14.44 67.3 15.22 -6.44 17.56 -34.34 22 -44.86 5.28 -3.72 -5.86 -7.42 -5.28 -6.26 -2.54 8.2 24.18 43.12 22.24 52.88 3.32 14.64 21.46 53.86 19.12 60 -4 1.76 -6.82 -2.72 -8.58 -3.32 -5.64 -5.46 25.16 -42.72 24.58 -53.84 5.06 0.212 -0.542 0.474 -1.064 0.78 -1.56 37.66 0.58 59.36 -10 69.46 -24.38 7 -10 0.4 -9.56 -0.2 -8.4 -13.32 25.26 -44.68 28 -66.54 28.3 -29.84 0.38 -67.12 -6.44 -80.76 -20 -12.7 -22 -20.7 -34.16 -7.22 -51.9 7.6 -10.54 1.74 -27.12 14.24 -35.12 0.2 0.338 0.476 0.624 0.806 0.834 0.33 0.212 0.706 0.34 1.098 0.378 0.39 0.036 0.784 -0.02 1.148 -0.164 0.364 -0.144 0.69 -0.374 0.948 -0.668 6.36 -7.36 19.22 -10 31.4 -3.5 5.08 2.72 4.5 -4.5 0 -5.48 16.2 -2.34 26.74 -10 37.66 -26.72 0.6 10 6.84 16.78 18.54 20 -2.92 1.56 -9.56 3.32 -7.42 7.4 0.398 0.476 0.964 0.784 1.58 0.858 0.618 0.074 1.24 -0.09 1.74 -0.458 16.2 -12.88 28.48 2.14 30.84 -3.32 11.7 4 17.74 13.28 20.86 18 3.26 5.6 6.38 4.82 5.6 1.7Zm-254.6198 95.46c1.18 -16 14.44 -27.12 26.92 -32.78 12.1 17.18 28.88 35.52 10 49.76 -2.8296 -4.998 -6.2324 -9.65 -10.14 -13.86 -2.74 -2.54 -4.5 -0.98 -3.52 1.18 1.76 4 6.82 10.14 9.76 15.4 -16.24 11.26 -34.96 -0.84 -33.02 -19.7Zm104.1998 -2.72c-10.54 37.84 -52.8798 46 -86.4398 41.56 -1.18 -2.94 -2.74 -7.04 -4.1 -10.54 15.02 3.7 34.14 -8.98 36.48 -23.22 3.52 -21.66 -33.56 -45.46 -26 -69.26 0.7478 -2.788 2.3202 -5.288 4.5112 -7.168s4.8988 -3.056 7.7688 -3.372c10.96 -1.18 22.44 15.02 29.08 33.36 -29.26 7.42 -11.12 40.78 14.4398 32.98 3.12 -0.4 5.86 -5.86 2.92 -4.88 -12.28 3.32 -19.6998 0.98 -23.3998 -2.94 -17.38 -17.74 18.4198 -28.72 28.4798 -16.78 3.28 3.78 9.82 16.98 16.26 30.2v0.06Z" stroke-width="1"></path><path id="Vector_21" fill="#001434" d="M288.408 269.162c6.44 -28.28 -26.92 -42.52 -46.42 -26.34 -10.16 8.6 -9.76 27.32 -2.16 34.34 10.16 8.98 44.1 11.9 48.58 -8Zm-10.14 7.22c-9.36 5.46 -31.8 2.34 -36 -4 8.78 -7.22 23.6 -19.32 32.58 -28 12 4.3 13.56 25.96 3.42 32Z" stroke-width="1"></path><path id="Vector_22" fill="#001434" d="M308.508 324.382c20.88 0 43.32 -15.8 28 -31.6 -11.12 -11.32 -21.46 8.98 -41.56 3.7 -9.16 -2.34 -14 4 -14.62 10.34 -1.08 8.4 6.14 17.56 28.18 17.56Zm-17.36 -17.16c-1.74 -0.62 -4.48 -1.38 -6.64 -2.34 3.52 -8.6 7.62 -2.94 20.88 -2.94 13.26 0 18.54 -11.7 26.92 -6.44 -1.734 1.978 -3.628 3.81 -5.66 5.48 -0.292 0.234 -0.496 0.558 -0.58 0.922 -0.084 0.364 -0.042 0.746 0.118 1.082 0.158 0.338 0.428 0.612 0.762 0.778 0.334 0.166 0.714 0.216 1.08 0.138 2.14 -0.2 3.32 -1.36 7.22 -4.5 7.8 21.28 -46 28 -50.94 10.54 3.14 0.98 5.28 1.76 7.04 0.6 0.78 -0.54 1.38 -2.76 -0.2 -3.32Z" stroke-width="1"></path></g></g></svg>