<svg xmlns="http://www.w3.org/2000/svg" fill="none" viewBox="0 0 400 400" id="Approval-2--Streamline-Manila.svg" height="400" width="400"><desc>Approval 2 Streamline Illustration: https://streamlinehq.com</desc><g id="approval-2--work-approval-check"><g id="Group 14"><path id="Vector" fill="#3d9cfb" d="M358.604 326.906c-12.46 1.56 -43.46 12.68 -51.06 17.36 -7.6 4.68 -6.82 13.24 4.28 13.44 13.06 0.2 48.14 -12 54.98 -19.1 5.64 -5.66 3.5 -13.24 -8.2 -11.7Z" stroke-width="1"></path><path id="Vector_2" fill="#3d9cfb" d="M83.7844 311.126c-27.88 22.8 -15.02 69.78 23.38 69.2 35.28 1.56 52.24 -40.54 30.22 -65.7 -6.8346 -7.256 -16.165 -11.65 -26.1112 -12.3 -9.946 -0.65 -19.7688 2.496 -27.4888 8.8Zm47.16 58c-10.92 8.58 -34.5 11.9 -49.7 -3.12 -19.88 -22 -2.54 -60.22 28 -59.64 34.56 0.46 44.7 44.52 21.7 62.84v-0.08Z" stroke-width="1"></path><path id="Vector_3" fill="#3d9cfb" d="M121.9844 316.186c-4.3 0.98 -12.28 30.22 -16 30.42 -9.56 0.38 -21.06 -18.92 -24.38 -0.2 -0.78 3.7 22.8198 18.7 29.4398 18.7 6.62 0 24.6802 -39.9 22.8002 -43.46 -1.26 -1.936 -3.0426 -3.478 -5.1414 -4.444 -2.0986 -0.966 -4.428 -1.318 -6.7186 -1.016Z" stroke-width="1"></path><path id="Vector_4" fill="#3d9cfb" d="M215.924 191.2456c-2.72 1.36 -8.76 25.3404 -11.3 26.1204 -3.5 0.4 -8.7798 -5.38 -12.4798 -5.64 -2.14 -0.16 -3.7 3.3 -3.5 6.82 0.2 2.72 14.9798 11.58 20.4598 10.52 4.48 -0.86 16.58 -32.9402 15.02 -35.2802 -0.916 -1.2428 -2.208 -2.1594 -3.682 -2.6164 -1.476 -0.4568 -3.058 -0.4304 -4.518 0.0762Z" stroke-width="1"></path><path id="Vector_5" fill="#3d9cfb" d="M189.2244 166.6856c-4.48 0.2 -14.42 -11.4998 -15.78 0.7802 0.2 2.74 14.62 11.12 18.9 10.52 5.26 -0.78 16.9596 -32.5402 15.3996 -34.8802 -1.56 -2.34 -4.84 -4.26 -6.82 -2.54 -2.2996 2 -9.1596 25.34 -11.6996 26.12Z" stroke-width="1"></path><path id="Vector_6" fill="#3d9cfb" d="M176.7442 127.1258c5.48 -0.66 17.74 -32.56 16.18 -34.9 -1.56 -2.34 -7.02 -2.72 -9.74 -0.58 -2.34 2 -7.58 23.6398 -10.14 24.1798 -4.26 0.88 -15.78 -11.3198 -15.78 0.5802 0 2.54 15.4 11.2 19.48 10.72Z" stroke-width="1"></path><path id="Vector_7" fill="#3d9cfb" d="M307.144 228.286c-4.68 0.58 -16.96 -13.36 -20.84 -13.26 -3.88 0.1 -7.8 6 -8.38 12 -0.58 6 26 29.06 36 27.5 10.54 -1.56 33.14 -58.8804 31.4 -64.7204 -1.74 -5.84 -10.34 -8.58 -14.82 -6.24 -6 3.2 -18.68 44.1404 -23.36 44.7204Z" stroke-width="1"></path><path id="Vector_8" fill="#3d9cfb" d="M318.644 258.686c-14.66 8.8 -42.96 3.68 -48.92 -15 -2.404 -5.702 -3.138 -11.968 -2.118 -18.07s3.75 -11.788 7.876 -16.398c4.126 -4.612 9.478 -7.954 15.43 -9.6418 5.952 -1.6874 12.26 -1.6494 18.192 0.1096 5.46 1.5602 5.64 -2.52 1.16 -3.7 -33.34 -9.32 -61.56 28.0002 -39.56 57.3002 6.44 8.58 19.68 13.26 28.84 13.46 22.38 0.62 26.88 -12.72 19.1 -8.06Z" stroke-width="1"></path><path id="Vector_9" fill="#3d9cfb" d="M190.5844 367.846c-4.28 -1.18 -22.4 8.18 -21.04 13.06 1.16 4 18.98 1.28 23.38 -1.56 0.9886 -0.734 1.7474 -1.736 2.1876 -2.886 0.4402 -1.15 0.5436 -2.402 0.298 -3.608 -0.2454 -1.206 -0.8296 -2.318 -1.6844 -3.206 -0.8546 -0.886 -1.9442 -1.51 -3.1412 -1.8Z" stroke-width="1"></path></g><g id="Group 13"><path id="Vector_10" fill="#001434" d="M150.0444 111.9258c8.56 29.76 5.62 30.1198 40.54 19.0998 9.5596 -3.12 7.22 -10.3398 5.26 -17.1598 -0.96 -4 -5.06 -5.06 -4.28 -0.78 1.18 5.66 4.1 12.28 -2.34 14.24 -22 6.86 -27.7 9.9998 -30.8 0.1798 -8.54 -27.76 -8.24 -22.74 17.54 -31.76 3.32 -1.18 -0.18 -3.9998 -3.12 -2.9198 -6.22 2 -10.52 3.4998 -16.16 5.4398 -5.64 1.94 -8.78 6.8402 -6.64 13.6602Z" stroke-width="1"></path><path id="Vector_11" fill="#001434" d="M207.944 99.0456c7.4 -2.34 58.28 -14.62 62.18 -15.78 3.9 -1.16 6.62 -5.26 -0.98 -3.7 -6 1.16 -50 10.3202 -61.78 15.4002 -2.74 1.16 -3.12 5.2598 0.58 4.0798Z" stroke-width="1"></path><path id="Vector_12" fill="#001434" d="M177.9244 183.3656c-3.7 -0.38 -6.24 -9.74 -9.16 -20.84 -3.14 -12.2 4.34 -10 23.2 -16 3.7 -1.16 0.96 -3.9 -4.5 -2.52 -18.12 4.48 -26.12 5.46 -22.4 19.3 5.26 19.1 6.82 25.34 15.78 24.56 8.0652 -0.8966 15.9866 -2.7978 23.5796 -5.6598 11.32 -3.7 8.2 -11.7002 5.86 -20.4602 -1.38 -5.08 -4.78 -2.1398 -3.7 2.1402s3.88 11.5 -2.94 13.84c-6.1996 2.22 -18.8996 6.4998 -25.7196 5.6398Z" stroke-width="1"></path><path id="Vector_13" fill="#001434" d="M245.164 104.9056c20.48 -4.48 22 -5.66 22.22 -7.6 0.18 -1.38 -1.56 -1.56 -3.3 -1.18 -1.74 0.38 -15.6 3.5202 -19.3 5.0802 -3.7 1.56 -1.96 4.2798 0.38 3.6998Z" stroke-width="1"></path><path id="Vector_14" fill="#001434" d="M193.4444 323.606c9.1796 6.88 74.5196 -11.04 85.7596 -13.84 20.62 -5 45.88 -9.56 61.4 -20 11.38 -7.48 23.46 -22.38 29.62 -34.7 6.56 -10.92 5.3 -19.52 1.76 -31.58 -11.32 -38.4002 -28.26 -103.7004 -42.7 -149.1004 -3.12 -10.34 -5.84 -19.1 -7.4 -24.76 -3.12 -10.52 -8 -12.4798 -14.22 -11.8998 -4.68 -13.04 -18 -13.0402 -29.44 -11.1002 -32 5.56 -52.58 10.4602 -59.06 6.8202 -0.78 -0.58 -0.98 -1.56 -0.98 -4 0.096 -3.5702 -0.82 -7.0946 -2.642 -10.16634 -1.822 -3.07182 -4.474 -5.566 -7.652 -7.19484 -3.178 -1.62882 -6.752 -2.32586 -10.3102 -2.01074 -3.5574 0.31512 -6.9532 1.6296 -9.7956 3.79176 -2.5766 -0.49284 -5.2232 -0.49284 -7.7998 0 -11.88 2.92 -13.64 14.42016 -9.36 22.60016 1.56 2.92 0.4 3.7 -3.12 5.26 -1.36 0.6 -8.5602 4.2998 -10.7202 7.7998 -80.3 17.74 -55.8798 24.96 -28.4598 125.34 4.52 16.48 28.46 94.3404 32 107.0004 5.46 15.02 7.0198 35.28 17.3398 37.24 2.76 5.8 9.6202 6.58 15.7802 4.5Zm140.1396 -35.28c8.38 -11.7 13.12 -26.74 14.62 -44.84 0.16 -2 -0.2 -4.68 2.14 -4.48 6.632 1.026 13.072 3.05 19.1 6 -2.66 10.36 -16.68 31.72 -35.78 43.32h-0.08Zm-30.42 -250.0004c-5.68 1.14 -29.12 5.0002 -45.6 8.3802 -0.956 -1.533 -2.136 -2.915 -3.5 -4.1002 36.02 -7.78 46.3 -9.24 49.18 -4.36l-0.08 0.08Zm-107.3998 -23c2.1402 -0.50664 4.3678 -0.51198 6.5118 -0.01588 2.142 0.4961 4.14 1.48028 5.84 2.87598 1.7 1.3957 3.054 3.1651 3.958 5.1701 0.904 2.0052 1.332 4.192 1.25 6.3898 -0.2 8.38 6.62 10.14 14.8 9.54 10 0 29.64 4.68 26.7 17.56 -0.96 4.66 -44.62 12.66 -62.3596 16.56 -17.36 3.7 -21.8402 4.68 -23.5802 0.98 -5.86 -12.88 4.48 -21.84 11.88 -24.38 7.02 -2.32 11.5 -7.9998 7.4 -14.7998s-3.2198 -17.04028 7.6802 -19.96028l-0.0802 0.08008Zm-19.48 25.72c1.56 -4.68 -1.9998 -7.2 -2.7198 -11.7 -0.98 -5.64 4 -11.10004 10.12 -11.30004 -3.7 5.66004 -2.9202 13.46004 0.1998 19.10004 2.34 4.1 0.7802 5.26 -2.3398 7.02 -5.06 0.98 -11.1 2.34 -15.6 3.12 3.6 -1.44 8.86 -2.9998 10.42 -6.3198l-0.0802 0.0798Zm37.2198 32.9402c32.7 -6.44 50.34 -8.7 46 -22.8 14.24 -2.92 37.04 -6.8202 41.14 -7.4002 9.74 -1.56 13.84 -2.94 16.56 7.6 6.44 22 19.5 63.54 24.56 82.64 23.42 87.1804 28.26 96.1204 28.26 105.8404 -5.556 -2.376 -11.378 -4.074 -17.34 -5.06 -7.22 -1.38 -9.56 1.74 -9.74 12.86 -4.68 -0.58 -9.56 -1.56 -9.16 4 0.58 9.56 -2.34 32 -17.36 44.44 -4.23 1.212 -8.522 2.194 -12.86 2.94 -34 6.42 -73.48 21.04 -106.4198 21.62 -2 0 -1.0598 -0.68 -13.6398 -40.54 -17.16 -57.68 -40 -125.5204 -53.8 -183.6004 -4.68 -19.5 13.06 -20.8598 32.74 -25.3398 3 16.48 14.64 9.9198 51.1396 2.7198l-0.08 0.0802Zm-95.9996 16.96c-3.64 -17.68 3.02 -20.96 46 -31 -0.7358 1.8768 -1.194 3.8508 -1.3602 5.8598 -21.64 6.42 -41.3398 6 -36.6598 30.98S190.3042 319.186 190.4042 319.386c-2.54 0.58 -5.9998 0.78 -7.5998 -0.98 -18.62 -69.38 -57.36 -188.7404 -65.36 -227.5404l0.06 0.0802Z" stroke-width="1"></path><path id="Vector_15" fill="#001434" d="M368.544 327.506c-1.36 -10 -11.88 -13.66 -29.24 -12.48 -16.76 1.36 -66 12 -70.74 13.44 -1.26 0.556 -2.392 1.362 -3.332 2.368 -0.938 1.008 -1.662 2.196 -2.128 3.492 -20.46 4.68 -76.4196 19.1 -86.5396 38.58 3.2858 -2.016 6.823 -3.59 10.52 -4.68 21.4196 -16.88 80.4196 -30.6 83.9996 -30.6 12.22 -1.58 18.84 20.86 8.2 27.68 -4.68 2.92 -61.2 15.2 -89.0796 15.2 -3.6008 1.186 -7.337 1.912 -11.12 2.16 11.68 8.54 80.3396 -6.12 98.2396 -11.7 1.368 0.54 2.83 0.804 4.3 0.78 4.48 0 21.82 -5.66 28.84 -8.58 10.54 10.54 59.08 -12.74 65.3 -20 5.84 -7.28 3.5 -15.66 -7.22 -15.66Zm-60.62 31.56c-7.432 2.964 -15.048 5.442 -22.8 7.42 9.18 -10.5 2.84 -34 -13.26 -34 12.8 -2.52 88.66 -24.68 92 -4.68 -12.42 3.78 -58.66 17.42 -55.94 31.26Zm63.74 -18.32c-7.6 6.44 -27.68 14.42 -40.74 18.32 -5.46 1.76 -13.06 3.12 -17.14 0.4 -10.54 -7.02 47.74 -27.3 54.96 -27.3 7.22 0 7.22 4.88 2.92 8.58Z" stroke-width="1"></path><path id="Vector_16" fill="#001434" d="M226.644 161.3658c3.7 -0.48 46.78 -13.26 49.72 -14 2.32 -0.78 2.52 -3.3002 0.18 -3.3002 -4.86 0 -16.18 4.4802 -31.38 8.3802 -5.64 1.36 -15.78 3.4998 -19.1 5.0598 -3.32 1.56 -3.14 4.4202 0.58 3.8602Z" stroke-width="1"></path><path id="Vector_17" fill="#001434" d="M199.7446 35.1258c10.3394 0.2 8.7794 -16.57988 -1.3602 -13.6398 -1.653 0.3612 -3.1156 1.317 -4.1098 2.686 -0.9944 1.369 -1.4508 3.0556 -1.283 4.7392 0.1678 1.6836 0.9484 3.247 2.1934 4.3928 1.245 1.1458 2.8678 1.794 4.5596 1.8218Zm0.7794 -10.1398c3.12 0 3.52 5.26 0.4 6 -4.8796 1.38 -5.8396 -6 -0.4 -6Z" stroke-width="1"></path><path id="Vector_18" fill="#001434" d="M226.064 214.246c-1.76 -4.48 -4.28 -3.12 -3.7 -0.98 2.16 7.58 4.88 14 -2.72 15.8 -6.838 2.55 -13.884 4.504 -21.0598 5.84 -7.88 1.64 -9.62 -2.12 -14.62 -23.38 -1.24 -7.12 1.18 -7.52 21.6398 -13.6404 3.5 -0.98 3.9 -1.9998 3.12 -2.7398 -2.68 -2.58 -16.1798 2.5398 -21.4398 4.6798 -5.26 2.1404 -8.58 4.2804 -7.22 12.0004 1.162 6.574 2.9228 13.026 5.26 19.28 4 9.88 7.58 10.92 35.2798 1.56 8.72 -3.04 8.68 -9.84 5.46 -18.42Z" stroke-width="1"></path><path id="Vector_19" fill="#001434" d="M234.064 105.8858c-2.16 -2.16 -6.64 -0.4 -24 4.66 -3.12 0.98 -2 3.7198 0.58 3.7198s12.82 -3.7198 21.06 -5.8598c2.54 -0.64 2.94 -1.94 2.36 -2.52Z" stroke-width="1"></path><path id="Vector_20" fill="#001434" d="M126.6642 290.266c-11.7844 -6.794 -25.589 -9.21 -38.98 -6.82 -4.8382 -3.004 -10.3238 -4.806 -16 -5.26 -0.6142 -4.018 -2.268 -7.806 -4.7974 -10.988 -2.5294 -3.182 -5.8466 -5.648 -9.6226 -7.152 -23.78 -10.52 -45.02004 12.48 -34.5 34.7 4.3 9.16 12 14.82 20.66 14.82 0.6104 2.752 1.664 5.386 3.12 7.8 -3.5 16.56 -1.74 31.58 6.24 42.3 17.16 23.18 34.3 30.2 52.44 30.2 59.46 0 69.54 -74.08 21.44 -99.6Zm-83.82 14.42c-17.16 -1.16 -24.11996 -25.08 -11.88 -37.02 10.74 -10.5 34 -4.1 35.86 10.72 -13.84 1.74 -24.18 12.98 -23.98 26.3Zm37.62 -19.48c-14 4 -26.12 12.86 -31.58 25.72 -5.44 -19.3 13.46 -33.4 31.58 -25.72Zm-18.9 77.38c-21.64 -22.42 -14.62 -67.26 25.34 -74.46 12.905 -2.092 26.139 0.166 37.62 6.42 -44.58 -14.32 -79.08 27.98 -62.96 68.04Zm64.7 18.32c-28.36 11.66 -51.64 0.38 -61 -22.22 -9.56 -30.74 9.62 -62.18 43.46 -62.18 46.72 -0.58 61.3 66.42 17.54 84.4Z" stroke-width="1"></path><path id="Vector_21" fill="#001434" d="M220.404 142.1258c-3.3 1.36 -3.3 3.9 0.4 3.9 3.7 0 22.8 -6.62 30.22 -9.16 7.42 -2.54 46.96 -12.28 48.52 -13.06 1.56 -0.78 2.74 -4.4798 -4.68 -3.1198 -16.12 2.9 -73.26 20.9598 -74.46 21.4398Z" stroke-width="1"></path><path id="Vector_22" fill="#001434" d="M260.364 200.226c-5.06 1.36 -12 4.28 -15.58 5.44 -3.58 1.16 -3.12 4 0.38 3.9 3.5 -0.1 14.42 -4.68 16.18 -5.46 1.76 -0.78 4.1 -5.2602 -0.98 -3.88Z" stroke-width="1"></path><path id="Vector_23" fill="#001434" d="M263.444 185.7856c-8.18 2.94 -19.88 6.0002 -23.58 7.8002 -3.7 1.8 -1.76 4 0.4 4s16.1 -5.04 24.74 -8c12.2 -4.14 32 -8.38 36 -10 4 -1.62 4.88 -5.84 -1.36 -3.7 -6.24 2.14 -23.88 5.8198 -36.2 9.8998Z" stroke-width="1"></path></g></g></svg>