<svg width="24" height="25" viewBox="0 0 24 25" fill="none" xmlns="http://www.w3.org/2000/svg">
<path d="M2.5 11.7685C2.5 10.5443 3.06058 9.38752 4.02142 8.62895L9.52142 4.28685C10.9747 3.13956 13.0253 3.13956 14.4786 4.28685L19.9786 8.62896C20.9394 9.38752 21.5 10.5443 21.5 11.7685V18.3301C21.5 20.5392 19.7091 22.3301 17.5 22.3301H16C15.4477 22.3301 15 21.8824 15 21.3301V18.3301C15 17.2255 14.1046 16.3301 13 16.3301H11C9.89543 16.3301 9 17.2255 9 18.3301V21.3301C9 21.8824 8.55228 22.3301 8 22.3301H6.5C4.29086 22.3301 2.5 20.5392 2.5 18.3301L2.5 11.7685Z" stroke="#344054" stroke-width="1.5"/>
</svg>
